<svg xmlns="http://www.w3.org/2000/svg" viewBox="0 0 81.67 81.67"><defs><style>.cls-1{fill:#1565a5;}</style></defs><g id="레이어_2" data-name="레이어 2"><g id="레이어_1-2" data-name="레이어 1"><path d="M40.84,0A40.84,40.84,0,1,0,63.43,74.84l-1.91-2.43a37.73,37.73,0,1,1,14-16.57l2.61,1.72A40.84,40.84,0,0,0,40.84,0Zm33,59.15a38.2,38.2,0,0,1-9.36,11.1l1.89,2.42A41.26,41.26,0,0,0,76.43,60.85Z"/><path d="M40.84,9.06A31.78,31.78,0,1,0,72.61,40.84,31.81,31.81,0,0,0,40.84,9.06Zm0,61.16A29.38,29.38,0,1,1,70.22,40.84,29.41,29.41,0,0,1,40.84,70.22Z"/><path d="M40.84,45.34a4.5,4.5,0,1,1,4.5-4.5A4.5,4.5,0,0,1,40.84,45.34Zm0-7a2.49,2.49,0,1,0,2.48,2.49A2.5,2.5,0,0,0,40.84,38.35Z"/><rect x="39.83" y="14.19" width="2.01" height="5.59"/><rect x="14.19" y="39.83" width="5.59" height="2.01"/><rect x="39.83" y="61.9" width="2.01" height="5.59"/><rect x="61.9" y="39.83" width="5.59" height="2.01"/><rect x="32.54" y="26.98" width="2.01" height="13.36" transform="translate(-13.98 33.58) rotate(-45)"/><rect x="39.43" y="30.7" width="20.63" height="2.01" transform="translate(-7.85 44.47) rotate(-45)"/><circle class="cls-1" cx="40.84" cy="40.84" r="2.58"/></g></g></svg>