<svg xmlns="http://www.w3.org/2000/svg" viewBox="0 0 76.56 81.81"><defs><style>.cls-1{fill:#083b82;}</style></defs><g id="레이어_2" data-name="레이어 2"><g id="레이어_1-2" data-name="레이어 1"><polygon class="cls-1" points="20.79 11.16 55.97 28.16 55.97 43.31 62.68 40.57 61.6 24.04 26.01 7.62 20.79 11.16"/><path d="M76.56,18.48,38.28,0,0,18.48v45L37.76,81.69a1.17,1.17,0,0,0,.52.12,1.2,1.2,0,0,0,.52-.12L76.56,63.46ZM38.28,2.66,72.61,19.23l-10,4.8a1.32,1.32,0,0,0-.2-.12L28.36,7.45ZM25.66,8.8,59.94,25.35l-7,3.39L18.65,12.2ZM60.74,27.62V40.15l-6.56,3.16V30.78ZM74.17,62,39.48,78.7V37.88l8.27-4a1.2,1.2,0,1,0-1-2.16L38.28,35.8,35,34.2a1.2,1.2,0,0,0-1.6.56,1.21,1.21,0,0,0,.56,1.6l3.16,1.52V78.7L2.39,62V21.14L28.81,33.89a1.19,1.19,0,0,0,1.6-.56,1.21,1.21,0,0,0-.56-1.6L4,19.23l11.88-5.74,36,17.36V45.22A1.21,1.21,0,0,0,53,46.42a1.17,1.17,0,0,0,.52-.12l9.63-4.65V26.46l11-5.32V62Z"/><path d="M12.27,57.32,6.82,54.69a1.19,1.19,0,0,0-1,2.15l5.45,2.63a1.16,1.16,0,0,0,.51.12,1.2,1.2,0,0,0,.53-2.27Z"/><path d="M17.27,54.06,6.83,49a1.2,1.2,0,1,0-1,2.16l10.44,5a1.23,1.23,0,0,0,.52.12,1.19,1.19,0,0,0,.52-2.27Z"/></g></g></svg>