<svg xmlns="http://www.w3.org/2000/svg" viewBox="0 0 81.67 74.99"><defs><style>.cls-1{fill:#083b82;}</style></defs><g id="레이어_2" data-name="레이어 2"><g id="레이어_1-2" data-name="레이어 1"><polygon points="64.76 24.76 64.76 24.73 64.76 24.27 64.76 23.8 64.76 23.77 64.76 23.34 64.76 23.31 64.76 22.84 64.76 22.8 64.76 22.38 64.76 22.35 64.76 21.88 64.76 21.84 64.76 21.42 64.76 21.39 64.76 21.22 64.76 20.91 64.76 20.46 64.76 20.43 64.76 20.29 64.76 20.26 64.76 19.8 64.76 19.5 64.76 19.33 64.76 19.29 64.76 18.87 64.76 18.84 64.76 18.36 64.76 18.33 64.76 17.91 64.76 17.88 64.76 17.4 64.76 17.37 64.76 16.95 64.76 16.95 64.76 16.91 64.76 16.44 64.76 16.02 64.76 15.99 64.76 15.98 64.76 15.95 64.76 15.53 64.76 15.05 64.76 15.02 64.76 15.02 64.76 14.6 64.76 14.57 64.76 14.09 64.76 14.06 64.76 13.64 64.76 13.61 64.76 13.13 64.76 13.1 64.76 12.68 64.76 12.17 64.76 11.68 64.76 10.75 62.6 10.75 62.6 11.68 62.6 12.17 62.6 12.68 62.6 13.1 62.6 13.13 62.6 13.61 62.6 13.64 62.6 14.06 62.6 14.09 62.6 14.57 62.6 14.6 62.6 15.02 62.6 15.02 62.6 15.05 62.6 15.53 62.6 15.95 62.6 15.98 62.6 15.99 62.6 16.02 62.6 16.44 62.6 16.91 62.6 16.95 62.6 16.95 62.6 17.37 62.6 17.4 62.6 17.88 62.6 17.91 62.6 18.33 62.6 18.36 62.6 18.84 62.6 18.87 62.6 19.29 62.6 19.33 62.6 19.5 62.6 19.8 62.6 20.26 62.6 20.29 62.6 20.43 62.6 20.46 62.6 20.91 62.6 21.22 62.6 21.39 62.6 21.42 62.6 21.84 62.6 21.88 62.6 22.35 62.6 22.38 62.6 22.8 62.6 22.84 62.6 23.31 62.6 23.34 62.6 23.77 62.6 23.8 62.6 24.27 62.6 24.73 62.6 24.76 62.6 25.69 64.76 25.69 64.76 24.76"/><path d="M40.84,46.24a6.07,6.07,0,0,0-6.06,6.06,1.65,1.65,0,0,0,3.3,0,2.76,2.76,0,1,1,2.76,2.75,1.65,1.65,0,0,0-1.65,1.65v3.72a1.65,1.65,0,1,0,3.29,0v-2.3a6.05,6.05,0,0,0-1.64-11.88Z"/><path d="M40.84,63.32a2.31,2.31,0,1,0,2.3,2.31A2.3,2.3,0,0,0,40.84,63.32Z"/><rect x="45.68" y="4.9" width="2.74" height="1.56"/><rect x="47.55" y="4.9" width="2.74" height="1.56"/><rect x="49.41" y="4.9" width="2.74" height="1.56"/><rect x="51.27" y="4.9" width="2.74" height="1.56"/><rect x="53.14" y="4.9" width="2.74" height="1.56"/><rect x="45.68" y="7.78" width="2.74" height="1.56"/><rect x="45.68" y="5.62" width="1.56" height="2.74"/><rect x="54.32" y="5.62" width="1.56" height="2.74"/><rect x="47.55" y="7.78" width="2.74" height="1.56"/><rect x="49.41" y="7.78" width="2.74" height="1.56"/><rect x="51.27" y="7.78" width="2.74" height="1.56"/><rect x="53.14" y="7.78" width="2.74" height="1.56"/><polygon points="63.01 10.75 62.94 10.75 62.09 10.75 61.19 10.75 61.13 10.75 60.33 10.75 60.27 10.75 59.38 10.75 59.31 10.75 58.52 10.75 58.46 10.75 57.56 10.75 57.5 10.75 56.7 10.75 56.64 10.75 56.32 10.75 55.75 10.75 54.89 10.75 54.83 10.75 54.57 10.75 54.51 10.75 53.65 10.75 53.08 10.75 52.76 10.75 52.69 10.75 51.9 10.75 51.84 10.75 50.94 10.75 50.88 10.75 50.09 10.75 50.02 10.75 49.13 10.75 49.06 10.75 48.27 10.75 48.27 10.75 48.21 10.75 47.31 10.75 46.52 10.75 46.46 10.75 46.45 10.75 46.39 10.75 45.6 10.75 44.7 10.75 44.64 10.75 44.64 10.75 43.84 10.75 43.78 10.75 42.89 10.75 42.82 10.75 42.03 10.75 41.97 10.75 41.07 10.75 41.01 10.75 40.22 10.75 39.26 10.75 38.34 10.75 36.59 10.75 36.59 12.91 38.34 12.91 39.26 12.91 40.22 12.91 41.01 12.91 41.07 12.91 41.97 12.91 42.03 12.91 42.82 12.91 42.89 12.91 43.78 12.91 43.84 12.91 44.64 12.91 44.64 12.91 44.7 12.91 45.6 12.91 46.39 12.91 46.45 12.91 46.46 12.91 46.52 12.91 47.31 12.91 48.21 12.91 48.27 12.91 48.27 12.91 49.06 12.91 49.13 12.91 50.02 12.91 50.09 12.91 50.88 12.91 50.94 12.91 51.84 12.91 51.9 12.91 52.69 12.91 52.76 12.91 53.08 12.91 53.65 12.91 54.51 12.91 54.57 12.91 54.83 12.91 54.89 12.91 55.75 12.91 56.32 12.91 56.64 12.91 56.7 12.91 57.5 12.91 57.56 12.91 58.46 12.91 58.52 12.91 59.31 12.91 59.38 12.91 60.27 12.91 60.33 12.91 61.13 12.91 61.19 12.91 62.09 12.91 62.94 12.91 63.01 12.91 64.76 12.91 64.76 10.75 63.01 10.75"/><polygon points="30.85 0 30.85 3.51 30.85 9.68 30.85 10.25 30.85 11.53 32.99 11.53 32.99 10.25 32.99 9.68 32.99 3.51 32.99 2.15 68.58 2.15 68.58 3.51 68.58 10.77 68.57 11.07 68.57 14.57 68.57 25.97 70.72 25.97 70.72 3.51 70.72 0 30.85 0"/><rect x="9.58" y="18.45" width="2.15" height="7.32"/><rect class="cls-1" x="41.56" y="15.75" width="22.26" height="9.42"/><path d="M13.62,75,6.45,38.51h12l.94,2.25h-10L15.6,72.58H66.09l4.66-23.69H73.2L68.08,75Zm57.85-29.8.88-4.43h-49l-.94-2.25H75.25l-1.32,6.68Z"/><polygon points="64.76 21.03 64.76 21.01 64.76 20.68 64.76 20.33 64.76 20.3 64.76 19.99 64.76 19.97 64.76 19.62 64.76 19.6 64.76 19.29 64.76 19.26 64.76 18.91 64.76 18.89 64.76 18.58 64.76 18.56 64.76 18.43 64.76 18.21 64.76 17.88 64.76 17.85 64.76 17.75 64.76 17.73 64.76 17.39 64.76 17.17 64.76 17.05 64.76 17.02 64.76 16.71 64.76 16.69 64.76 16.34 64.76 16.32 64.76 16.01 64.76 15.98 64.76 15.63 64.76 15.61 64.76 15.3 64.76 15.3 64.76 15.28 64.76 14.93 64.76 14.62 64.76 14.59 64.76 14.59 64.76 14.57 64.76 14.26 64.76 13.91 64.76 13.89 64.76 13.89 64.76 13.58 64.76 13.55 64.76 13.2 64.76 13.18 64.76 12.87 64.76 12.85 64.76 12.5 64.76 12.47 64.76 12.16 64.76 11.79 64.76 11.43 64.76 10.75 62.6 10.75 62.6 11.43 62.6 11.79 62.6 12.16 62.6 12.47 62.6 12.5 62.6 12.85 62.6 12.87 62.6 13.18 62.6 13.2 62.6 13.55 62.6 13.58 62.6 13.89 62.6 13.89 62.6 13.91 62.6 14.26 62.6 14.57 62.6 14.59 62.6 14.59 62.6 14.62 62.6 14.93 62.6 15.28 62.6 15.3 62.6 15.3 62.6 15.61 62.6 15.63 62.6 15.98 62.6 16.01 62.6 16.32 62.6 16.34 62.6 16.69 62.6 16.71 62.6 17.02 62.6 17.05 62.6 17.17 62.6 17.39 62.6 17.73 62.6 17.75 62.6 17.85 62.6 17.88 62.6 18.21 62.6 18.43 62.6 18.56 62.6 18.58 62.6 18.89 62.6 18.91 62.6 19.26 62.6 19.29 62.6 19.6 62.6 19.62 62.6 19.97 62.6 19.99 62.6 20.3 62.6 20.33 62.6 20.68 62.6 21.01 62.6 21.03 62.6 21.72 64.76 21.72 64.76 21.03"/><path d="M9.58,15.75v10h2.15V17.9H40.07v6.87l0,.14.06.36h-.08v.66h2.15v-.66h-.09l.07-.36a.5.5,0,0,0,0-.12v-9Z"/><path d="M0,40.76V24H81.67V40.76Zm2.25-2.25H79.42V26.28H2.25Z"/><polygon points="38.75 14.02 38.75 14.01 38.75 13.9 38.75 13.79 38.75 13.78 38.75 13.69 38.75 13.68 38.75 13.57 38.75 13.56 38.75 13.46 38.75 13.45 38.75 13.34 38.75 13.34 38.75 13.24 38.75 13.23 38.75 13.19 38.75 13.12 38.75 13.01 38.75 13.01 38.75 12.97 38.75 12.97 38.75 12.86 38.75 12.79 38.75 12.75 38.75 12.74 38.75 12.64 38.75 12.64 38.75 12.53 38.75 12.52 38.75 12.42 38.75 12.41 38.75 12.3 38.75 12.29 38.75 12.2 38.75 12.2 38.75 12.19 38.75 12.08 38.75 11.98 38.75 11.97 38.75 11.97 38.75 11.96 38.75 11.86 38.75 11.75 38.75 11.75 38.75 11.75 38.75 11.65 38.75 11.64 38.75 11.53 38.75 11.52 38.75 11.42 38.75 11.42 38.75 11.3 38.75 11.3 38.75 11.2 38.75 11.08 38.75 10.97 38.75 10.75 36.59 10.75 36.59 10.97 36.59 11.08 36.59 11.2 36.59 11.3 36.59 11.3 36.59 11.42 36.59 11.42 36.59 11.52 36.59 11.53 36.59 11.64 36.59 11.65 36.59 11.75 36.59 11.75 36.59 11.75 36.59 11.86 36.59 11.96 36.59 11.97 36.59 11.97 36.59 11.98 36.59 12.08 36.59 12.19 36.59 12.2 36.59 12.2 36.59 12.29 36.59 12.3 36.59 12.41 36.59 12.42 36.59 12.52 36.59 12.53 36.59 12.64 36.59 12.64 36.59 12.74 36.59 12.75 36.59 12.79 36.59 12.86 36.59 12.97 36.59 12.97 36.59 13.01 36.59 13.01 36.59 13.12 36.59 13.19 36.59 13.23 36.59 13.24 36.59 13.34 36.59 13.34 36.59 13.45 36.59 13.46 36.59 13.56 36.59 13.57 36.59 13.68 36.59 13.69 36.59 13.78 36.59 13.79 36.59 13.9 36.59 14.01 36.59 14.02 36.59 14.23 38.75 14.23 38.75 14.02"/></g></g></svg>