<svg xmlns="http://www.w3.org/2000/svg" viewBox="0 0 81.67 60.23"><defs><style>.cls-1{fill:#1565a5;}</style></defs><g id="레이어_2" data-name="레이어 2"><g id="레이어_1-2" data-name="레이어 1"><rect class="cls-1" x="1.76" y="16.16" width="70.28" height="9.03"/><path d="M81.67,0H0V26.54H73.12c1.4-1.18.55-2.72-.64-2.72H2.72V15h70.4c1.4-1.18.55-2.72-.64-2.72H2.72V2.72H79V57.51H2.72V32.38C1.54,31,0,31.82,0,33V60.23H81.67ZM12.42,39.31h12c1.4-1.19.56-2.73-.63-2.73h-12C10.39,37.76,11.23,39.31,12.42,39.31Zm0,8.5h12c1.4-1.18.56-2.72-.63-2.72h-12C10.39,46.27,11.23,47.81,12.42,47.81Z"/><rect x="23.18" y="36.58" width="2" height="2.72"/><rect x="72.04" y="23.83" width="2" height="2.72"/><rect x="61.57" y="33.89" width="2.29" height="2.91" transform="translate(-6.62 54.7) rotate(-45)"/><rect x="50.24" y="45.21" width="2.29" height="2.91" transform="translate(-17.95 50) rotate(-45)"/><rect x="72.04" y="12.25" width="2" height="2.72"/><rect x="23.18" y="45.09" width="2" height="2.72"/><rect x="11.06" y="45.09" width="2" height="2.72"/><rect x="11.06" y="36.58" width="2" height="2.72"/><rect y="31.58" width="2.72" height="2.15"/><path d="M61.47,34.53,50.08,45.92c-.12,1.93,1.65,2.45,2.55,1.56L64,36.09C64.14,34.16,62.36,33.64,61.47,34.53Z"/><circle cx="62.86" cy="46.09" r="2.54"/><circle cx="62.86" cy="46.09" r="0.36"/><circle cx="51.97" cy="35.2" r="2.54"/><circle cx="51.97" cy="35.2" r="0.36"/></g></g></svg>