<svg xmlns="http://www.w3.org/2000/svg" viewBox="0 0 81.17 81.67"><defs><style>.cls-1{fill:#1565a5;}</style></defs><g id="레이어_2" data-name="레이어 2"><g id="레이어_1-2" data-name="레이어 1"><circle class="cls-1" cx="20.92" cy="44.54" r="2.72"/><circle class="cls-1" cx="45.53" cy="44.54" r="2.72"/><polygon class="cls-1" points="58.79 65.24 62.45 61.27 77.3 76.02 73.81 80.16 58.79 65.24"/><path d="M10,10A34.28,34.28,0,1,0,67.86,41l-2.58-.32a31.66,31.66,0,1,1-1.54-18.11l2.56-.53A34.27,34.27,0,0,0,10,10ZM64.73,25.54a31.94,31.94,0,0,1,1,12.14l2.56.32a34.29,34.29,0,0,0-1-13Z"/><path d="M28.14,18.9H40.71V13.23H28.14Zm1.6-4.08h9.38V17.3H29.74Z"/><path d="M17.69,20.52v5.67h1.6V22.11h11V20.52Z"/><path d="M38.6,20.52v1.59h11v4.08h1.59V20.52Z"/><path d="M49.51,9.25v1.59h4.07v11h1.6V9.25Z"/><path d="M53.58,41V52H49.51v1.59h5.67V41Z"/><path d="M15,52V41h-1.6V53.54H19V52Z"/><path d="M13.35,9.25V21.81H15v-11H19V9.25Z"/><path d="M41.43,9.25v1.59H54V9.25Z"/><path d="M16.19,9.25v1.59H28.75V9.25Z"/><path d="M51.16,20.52V36.39H17.69V23.09a2.58,2.58,0,0,1,2.58-2.57H43.41c.69,0,1.18.89.38,1.59H19.29V34.8H49.57V22.11H47.13c-.7,0-1.19-.89-.39-1.59Z"/><path d="M54.12,60.62,54,60.38l.22.38ZM55.6,60l-.1-.18-.14-.24-3.49-6h0l-.15-.27.45-.18.11-.05.14-.07.17-.09.18-.11.14-.09.15-.11a3.92,3.92,0,0,0,.32-.25l.11-.09.15-.14.13-.14a0,0,0,0,0,0,0h0a5,5,0,0,0,1.39-3.26v-4.4h0V17.88c0-.11,0-.21,0-.31a8.6,8.6,0,0,0-1.59-4.7v4.72c0,.09,0,.19,0,.29V43.49h-3a4.22,4.22,0,0,0-4.13-3.41H21.88a4.23,4.23,0,0,0-4.13,3.41H14.94V40.26H13.35V48.2a5.35,5.35,0,0,0,.07,1.08,5.13,5.13,0,0,0,3.39,4l-.15.27-3.49,6-.14.24-.1.18a.25.25,0,0,0,0,.07l1.38.8v0l.13-.22.14-.24,3.95-6.84h1.84l-4.42,7.64-.14.25-.13.23h0l1.38.8h0l.13-.23L17.3,62l.86-1.48H50.37L51,61.57l.24.41.14.25.13.23h0l1.38-.8h0l-.13-.23-.15-.25-4.41-7.64H50L54,60.36v0l.22.38,0,.08,0,0h0l1.38-.8A.25.25,0,0,0,55.6,60ZM46.84,41.7a2.61,2.61,0,1,1-2.93,2.93A2.62,2.62,0,0,1,46.84,41.7Zm-21.67,0h18a4.19,4.19,0,0,0,0,5.21h-18A4.19,4.19,0,0,0,25.17,41.68ZM19.29,44a2.61,2.61,0,1,1,2.95,2.9A2.63,2.63,0,0,1,19.29,44ZM48.53,57.31l.92,1.6H19.08l.92-1.6ZM20.92,55.72l1.26-2.18H46.35l1.26,2.18Zm-6-3.78V45.08h2.81a4.23,4.23,0,0,0,4.13,3.41H46.5a4.22,4.22,0,0,0,4.13-3.41h3v3.36c0,.06,0,.11,0,.17v3.33ZM13.35,17.88V36.1h1.59V12.88A8.6,8.6,0,0,0,13.35,17.88ZM49.5,9.76a8.71,8.71,0,0,0-3-.52H22a8.54,8.54,0,0,0-3,.53,8,8,0,0,0-2,1.07H51.55A8.54,8.54,0,0,0,49.5,9.76Z"/><path d="M55.64,60.07l-1.38.8h0l0,0,0-.08-.08-.14L54,60.38v0L50,53.54H48.19l4.41,7.64.15.25.13.23h0l-1.38.8h0l-.13-.23L51.23,62,51,61.57l-.62-1.07H45.53V58.91h3.92l-.92-1.6h-3V55.72h2.08l-1.26-2.18h-.82v-1.6h8.24l-.13.14-.15.14-.11.09a3.92,3.92,0,0,1-.32.25l-.15.11-.14.09-.18.11-.17.09-.14.07-.11.05-.45.18h0l.16.27h0l3.49,6,.14.24.1.18A.25.25,0,0,1,55.64,60.07Z"/><path d="M73.93,81.67,53,60.79l7.24-7.24L81.17,74.43ZM56.3,60.79,73.93,78.41l4-4L60.28,56.81Z"/><polygon points="73.11 80.86 56.87 64.62 64.11 57.38 80.35 73.62 78.72 75.25 64.11 60.64 60.13 64.62 74.74 79.23 73.11 80.86"/></g></g></svg>