<svg xmlns="http://www.w3.org/2000/svg" viewBox="0 0 81.67 79.83"><defs><style>.cls-1{fill:#1565a5;}</style></defs><g id="레이어_2" data-name="레이어 2"><g id="레이어_1-2" data-name="레이어 1"><path d="M12.76,20.42v2.72H10v-2.7h2.72Z"/><rect x="8.95" y="43.99" width="2.72" height="35.84"/><path d="M81.66,30.22a11.22,11.22,0,0,1-18.14,8.84,11.39,11.39,0,0,1-3-3.48,11.5,11.5,0,0,1-.83,1.3,11.23,11.23,0,0,1-18.9-1.3,11.24,11.24,0,0,1-19.74,0A11.22,11.22,0,0,1,0,30.22c0-9.19,0-8.62.11-9L9,.82A1.38,1.38,0,0,1,10.21,0H71.45A1.38,1.38,0,0,1,72.7.82c9.51,22,9,20.6,8.94,21.15a1.33,1.33,0,0,1-.52.89c-.27.21.57.28-8.78.29-3,0-7,0-12.43,0H10v-2.7H78.22L70.56,2.73H11.1L2.72,22.06v8.16a8.51,8.51,0,1,0,17-.07,1.36,1.36,0,0,1,2.72,0,8.51,8.51,0,1,0,17,.07,1.36,1.36,0,0,1,2.72,0A8.5,8.5,0,0,0,58,34.62a8.44,8.44,0,0,0,1.23-4.4,1.36,1.36,0,0,1,2.72,0,8.52,8.52,0,0,0,7.83,8.48h0c.22,0,.44,0,.67,0a8.52,8.52,0,0,0,8.51-8.51,1.36,1.36,0,1,1,2.72,0Z"/><rect x="70.01" y="43.99" width="2.72" height="35.84"/><rect class="cls-1" x="35.54" y="58.15" width="17.91" height="21.68"/><rect x="40.93" y="61.91" width="2.72" height="17.92"/><rect x="52.09" y="52.19" width="2.72" height="14.99"/><rect x="40.93" y="41.03" width="2.72" height="25.03" transform="translate(95.84 11.26) rotate(90)"/><rect x="50.73" y="60.55" width="2.72" height="35.84" transform="translate(130.56 26.38) rotate(90)"/><rect x="25.51" y="60.55" width="2.72" height="35.84" transform="translate(105.34 51.6) rotate(90)"/><rect x="29.78" y="52.19" width="2.72" height="27.64"/></g></g></svg>