<svg xmlns="http://www.w3.org/2000/svg" viewBox="0 0 69.84 81.67"><defs><style>.cls-1{fill:#1565a5;}.cls-2{fill:#231f20;}</style></defs><g id="레이어_2" data-name="레이어 2"><g id="레이어_1-2" data-name="레이어 1"><path class="cls-1" d="M54.5,60.57h7.66a0,0,0,0,1,0,0V70.82a7.55,7.55,0,0,1-7.55,7.55H54.5a0,0,0,0,1,0,0V60.57A0,0,0,0,1,54.5,60.57Z"/><rect class="cls-2" x="25.83" y="-25.83" width="2.84" height="54.51" transform="translate(25.83 28.67) rotate(-90)"/><path class="cls-2" d="M67.73,78.83a7.19,7.19,0,0,1-.73.73,8.33,8.33,0,0,1-5.57,2.11H40.86V78.83Z"/><rect class="cls-2" x="24.72" y="54.12" width="2.84" height="52.27" transform="translate(-54.12 106.39) rotate(-90)"/><rect class="cls-2" width="2.84" height="81.67"/><rect class="cls-2" x="51.67" width="2.84" height="8.91"/><rect class="cls-2" x="51.67" y="19.91" width="2.84" height="49.07"/><path class="cls-2" d="M69.84,54V73.26a8.38,8.38,0,0,1-2.11,5.57,7.19,7.19,0,0,1-.73.73V54Z"/><rect class="cls-2" x="67" y="54" width="2.84" height="2.84"/><rect class="cls-2" x="26.53" y="21.17" width="2.84" height="30.87" transform="translate(-8.65 64.55) rotate(-90)"/><rect class="cls-2" x="26.53" y="36.44" width="2.84" height="30.87" transform="translate(-23.92 79.83) rotate(-90)"/><rect class="cls-2" x="63.02" y="50.04" width="2.84" height="10.76" transform="translate(9.03 119.86) rotate(-90)"/><rect class="cls-2" x="26.53" y="51.72" width="2.84" height="30.87" transform="translate(-39.2 95.1) rotate(-90)"/><path class="cls-2" d="M67.73,56.84a7.19,7.19,0,0,0-.73-.73v6c0,.11,0,.22,0,.34V73.26c0,.12,0,.23,0,.34a5.59,5.59,0,0,1-5.21,5.23H59.72a5.58,5.58,0,0,1-5.22-5.57V62.41c0-.12,0-.24,0-.36V56.11a8.35,8.35,0,0,0-2.84,6.3V73.26a8.39,8.39,0,0,0,8.41,8.41h1.35A8.33,8.33,0,0,0,67,79.56a7.19,7.19,0,0,0,.73-.73,8.38,8.38,0,0,0,2.11-5.57V62.41A8.38,8.38,0,0,0,67.73,56.84Z"/><path class="cls-2" d="M15.29,15.21l2.51,3.44H16.42L14.56,16l-.58.62v2H12.89V12.49H14v2.82l2.43-2.82h1.27Z"/><path class="cls-2" d="M20.45,12.4a3.32,3.32,0,0,1,1,.15,2.35,2.35,0,0,1,.83.47,2.23,2.23,0,0,1,.57.82,3.23,3.23,0,0,1,.21,1.23v1a3.25,3.25,0,0,1-.21,1.24,2.25,2.25,0,0,1-.56.82,2.19,2.19,0,0,1-.83.46,3.33,3.33,0,0,1-1,.15,3.27,3.27,0,0,1-1-.15,2.1,2.1,0,0,1-1.39-1.28,3.25,3.25,0,0,1-.21-1.24v-1a3.23,3.23,0,0,1,.21-1.23,2.34,2.34,0,0,1,.56-.82,2.31,2.31,0,0,1,.84-.47A3.21,3.21,0,0,1,20.45,12.4Zm0,5.35a2.21,2.21,0,0,0,.59-.08,1.19,1.19,0,0,0,.48-.29,1.4,1.4,0,0,0,.32-.55A2.79,2.79,0,0,0,22,16V15.2a2.79,2.79,0,0,0-.12-.88,1.33,1.33,0,0,0-.32-.55,1.09,1.09,0,0,0-.48-.29,2.18,2.18,0,0,0-1.17,0,1.09,1.09,0,0,0-.48.29,1.45,1.45,0,0,0-.32.55,2.79,2.79,0,0,0-.12.88V16a2.79,2.79,0,0,0,.12.88,1.54,1.54,0,0,0,.32.55,1.19,1.19,0,0,0,.48.29A2.2,2.2,0,0,0,20.45,17.75Z"/><path class="cls-2" d="M26.57,16.19H25.31v2.46H24.22V12.49h2.33a2.71,2.71,0,0,1,.85.13A1.91,1.91,0,0,1,28,13a1.6,1.6,0,0,1,.38.54,1.65,1.65,0,0,1,.13.68v.31a1.72,1.72,0,0,1-.23.88,1.59,1.59,0,0,1-.72.6l.6,1.34.6,1.33H27.6Zm-1.26-2.78v1.86h1a1.36,1.36,0,0,0,.89-.22.76.76,0,0,0,.25-.57v-.26a.79.79,0,0,0-.24-.59,1.16,1.16,0,0,0-.8-.22Z"/><path class="cls-2" d="M34.91,18.65H33.72L33.12,17H31.05l-.61,1.69H29.32l2.29-6.16h1Zm-3.55-2.6h1.45l-.42-1.26c-.08-.2-.13-.38-.18-.51s-.08-.29-.13-.44c0,.09,0,.17-.06.23a1.72,1.72,0,0,1-.07.21,2,2,0,0,1-.07.23l-.1.28Z"/><path class="cls-2" d="M35.76,12.49h1.09v6.16H35.76Z"/><path class="cls-2" d="M39.33,12.49v5.24h2.81v.92H38.23V12.49Z"/></g></g></svg>