<svg xmlns="http://www.w3.org/2000/svg" viewBox="0 0 428.09 28.77"><defs><style>.cls-1{fill:#fff;}</style></defs><g id="레이어_2" data-name="레이어 2"><g id="레이어_1-2" data-name="레이어 1"><path class="cls-1" d="M14.73,9.84a1.06,1.06,0,0,1-.66.51.4.4,0,0,0-.21.27,8.24,8.24,0,0,1-1.95.78l-2.16.66a4.12,4.12,0,0,0-.84.15,4,4,0,0,1-.72.24,1.46,1.46,0,0,1-.33.12,4.37,4.37,0,0,1-.48,2,3.76,3.76,0,0,0-.27.75c-.06.18-.15.36-.21.6s-.18.6-.33,1c.45-.15,1.08-.48,1.5-.66.15-.06.36-.12.81.12s.3.9.15,1.44c0,.09,0,.15,0,.24a38.7,38.7,0,0,1-1.65,9.18c0,.06,0,.09-.06.12s-.12.24-.12.75l-.84.72a3.76,3.76,0,0,1,.06-2.55,6.54,6.54,0,0,0,.33-1.83.93.93,0,0,1,0-.27c.09-.93.21-2,.33-2.94s.3-2,.39-3.12c-.45.18-.87.33-1.32.48A22.93,22.93,0,0,0,3,19.8H2.79c-.51,0-1,0-1.14-.63.06-.66.45-.75.84-.87l.36-.09,1.92-.75c.39-1.35,1-3,1.53-4.41l-.18.06-.27.09a25.51,25.51,0,0,0-4.71,1.56C.51,15,.21,14.43,0,14l.06-.39a27.78,27.78,0,0,1,5.76-1.95c1-.27,1.92-.51,2.85-.81,1.77-.45,3.66-1,5.4-1.5.15.09.15.09.18.09l.21,0Zm-6.87-7a36.55,36.55,0,0,1-1.26,5c-.24.78-.48,1.23-.69,2a1.32,1.32,0,0,0-.24.45,1.72,1.72,0,0,1-.9,1.2c-1-.42-.75-1-.51-1.47a.52.52,0,0,0,.12-.36c.12-.36.27-.87.42-1.44a14.84,14.84,0,0,1,.51-1.5,9.21,9.21,0,0,1,.54-2.07,6.07,6.07,0,0,0,.3-1A41.19,41.19,0,0,0,1.83,4.8a.89.89,0,0,1-.9-.51V4.14c-.12-.27-.21-.57.33-.81.12,0,.24,0,.36-.06A1.55,1.55,0,0,0,2,3.21c.87-.21,1.86-.45,2.82-.72.54-.15.93-.3,1.5-.45.09-.15.24-.15.36-.21l0,0a1,1,0,0,1,1.08.54Z"/><path class="cls-1" d="M16.05,7.86a1.28,1.28,0,0,1,1.56.45L17.46,9a2,2,0,0,0,.33-.12c.57-.21.75-.21,1.17-.39a1.23,1.23,0,0,1,.66-.39c.42-.06.6.18.84.54a1.31,1.31,0,0,0,.21.24,4.58,4.58,0,0,1-.36,1.71,6,6,0,0,0-.3,1.17,7.34,7.34,0,0,0-.24,1.08c0,.06,0,.21,0,.24,0,.51-.09,1-.15,1.44s-.09.51-.12,1l1.56-.3c.15,0,.9-.09.9-.09l-.3,1a23.32,23.32,0,0,1-3.12,1.2c-.75.24-1.47.42-2.19.69a6.79,6.79,0,0,0-2.19,1.23,1.15,1.15,0,0,1-1.14-.6c-.42-.51,0-.78.42-1s.51-.24.84-.45.72-.3,1.05-.42a12.67,12.67,0,0,1-.09-1.89,19.69,19.69,0,0,1,.21-2.7Zm4,11.76a10.62,10.62,0,0,1-.66,2.73c-.12.33-.18.57-.27.9l.12-.06a48.86,48.86,0,0,0,5.64-.84c1.26-.24,2.43-.48,4.14-.72l.27,0a1.7,1.7,0,0,1,.75.12,3.4,3.4,0,0,1-2.19,1.35c-.18.06-.42.12-.69.18a31.59,31.59,0,0,1-3.87,1c-.45.06-1.05.15-1.62.27l-.81.12a13.14,13.14,0,0,0-3.09.72,1.86,1.86,0,0,0-.33-.27c-.39-.27-.75-.54-.66-1.11l.45-.69c.15-.45.39-1,.54-1.47a23.78,23.78,0,0,0,.93-3c.69,0,1.11.09,1.32.69Zm-1.86-6.09a11.24,11.24,0,0,1,.36-3,3.28,3.28,0,0,1,.24-.45,4.86,4.86,0,0,0-1.5.84,29.05,29.05,0,0,0-.39,4.41c0,.27,0,.57,0,.87.42-.09.75-.24,1.2-.33a5.78,5.78,0,0,0,0-.72ZM26.55,8c-.18,1.14-.3,2.25-.39,3.39a23.46,23.46,0,0,1-1.08,6.12.54.54,0,0,0-.15.21.76.76,0,0,1-.63.51c-.42.06-.54-.21-.66-.42l0-.6v-.33a11.57,11.57,0,0,0,.54-2.13c.27-2.43.54-5.13.72-7.53a1.31,1.31,0,0,1,1.65.6Z"/><path class="cls-1" d="M40.74,10.05a61,61,0,0,0-.9,7.23c0,.33-.06.75-.09,1.11a4.51,4.51,0,0,0-.06.6A2.65,2.65,0,0,1,39,20.82a.91.91,0,0,1-.6-1,8.94,8.94,0,0,0,0-1.26,6.89,6.89,0,0,1-.06-1.11s-.06.06-.09.06c-.9.45-1.86.87-2.79,1.29a21,21,0,0,0-5.28,2.91l-.3,0a.94.94,0,0,1-.6-.33s-.06-.09-.09-.12A.61.61,0,0,1,29,20.4,39.36,39.36,0,0,1,35.67,17c.45-.18.93-.39,1.38-.6l1.35-.66c.06-.54.15-1.17.18-1.74.15-1.44.3-3,.57-4.38A.9.9,0,0,1,40,8.94a.51.51,0,0,0,.3.18C40.62,9.3,41,9.45,40.74,10.05Zm-6.6-2.94a15.18,15.18,0,0,1,.15,2,7.23,7.23,0,0,1-1.14,4.26c-.36.36-.81.75-1.35.54-.6-.39-1.29-1-1.29-1.71.12-.15,0-.36.12-.51.15-.45.27-1,.39-1.47a19.34,19.34,0,0,1,.87-2.79c.06-.18.21-.24.33-.33s-.06,0-.09-.09a1.48,1.48,0,0,0,.21-1,4,4,0,0,0,1,.42,1.15,1.15,0,0,1,.81.48ZM33,8.49a35.07,35.07,0,0,0-.9,3.6l.12.24a8.93,8.93,0,0,0,.69-2.28A12.5,12.5,0,0,0,33,8.49Z"/><path class="cls-1" d="M55.26,10.05l.33,1a8,8,0,0,1,.15,1.59A5.16,5.16,0,0,1,54,16.83a.78.78,0,0,1-.78.57,1.23,1.23,0,0,1-1.2-.21c-.06-.06-.21-.18-.33-.3a4.62,4.62,0,0,1-.18-1.29,10.49,10.49,0,0,1,.27-2,9,9,0,0,0,.18-1.2,5.46,5.46,0,0,0,.21-.9,5.46,5.46,0,0,1,1-2.52,1.58,1.58,0,0,1,.51.12.86.86,0,0,1,.57-.15,1.62,1.62,0,0,0,.24,0,1,1,0,0,1,.42.39c0,.06.06.12.12.18Zm-1.08,1.44a1.45,1.45,0,0,1-.24-.72,7,7,0,0,0-.54,3,3,3,0,0,0-.33,1.53,2.59,2.59,0,0,0,0,.51A6.84,6.84,0,0,0,54.18,11.49Zm5.49,6.81a9.29,9.29,0,0,1-.21,1.86l-.15.66c-.12.66-.33,1.47-.42,2.19,1-.27,2-.63,3.06-1,1.47-.45,2.82-.9,4.29-1.23a3.29,3.29,0,0,1,1.44-.18H68l.78-.21.42.66-.72.3a1.64,1.64,0,0,1-.45.24,2.2,2.2,0,0,1-.75.24,1.73,1.73,0,0,0-.42.09l-.24.24c-1.56.48-3,.93-4.56,1.47-1.26.45-2.67,1-3.93,1.32a2.05,2.05,0,0,1-1-1.65,18.59,18.59,0,0,0,.9-4c.09-.54.15-.87.24-1.38a.86.86,0,0,1,1.44.21Zm11.85-10,0,.51L70.68,9,70,9.27a19.81,19.81,0,0,0-4.83,2c-.06,0-.12.09-.18.18-.21.27-.36.57-.9.36a11.5,11.5,0,0,0-.24,2.07,15.6,15.6,0,0,1-.15,1.77c-.06.33-.21.39-.48.3l-.21,0-.3-.27A2.24,2.24,0,0,1,62.37,14a4.81,4.81,0,0,0,0-.93c.12-.87.24-1.8.39-2.7a30.46,30.46,0,0,0,.57-4.8c.69-.36.84,0,1,.24,0,.09.06.18.27.24l.15,1.11a10.23,10.23,0,0,1-.21,1.74,5.15,5.15,0,0,0-.15,1.08c.57-.3,1.26-.63,1.92-.9l.36-.15,1.71-.57.78-.15L70.62,8Z"/><path class="cls-1" d="M76.74,14.94c0,.51,0,1,0,1.5,0,1.26-.06,2.49-.15,3.9-.09.12,0,.3-.06.42-.06.69-.18,1.65-.24,2.31a.37.37,0,0,0-.27.24s0,.27,0,.3c-1,.33-1-.27-1-.84a1.13,1.13,0,0,0,0-.36c0-.93,0-1.77.06-2.67,0-1.5.09-3.3.12-5L74.1,16.32a1.73,1.73,0,0,1-.24.3l-1,1.17h0a20,20,0,0,1-2,2.07l-.39-.06c-.42-.3-.3-.51-.15-.72,0,0,0,0-.06-.12A77.11,77.11,0,0,0,77.73,7.41c-1.08.42-2.1.78-3.24,1.17h0c-.48.18-1,.33-1.41.51s-.69-.12-.9-.36a2.46,2.46,0,0,0-.45-.36,1.8,1.8,0,0,1,1.44-1,2.7,2.7,0,0,0,.69-.21,13.68,13.68,0,0,1,1.8-.66,11.85,11.85,0,0,0,1.74-.57c.15-.06.33-.15.51-.21h0a3.08,3.08,0,0,0,1-.6,1.41,1.41,0,0,1,1.35.24l.09.12c.24.51-.09.93-.39,1.35a1.87,1.87,0,0,0-.3.6c-.84,1.53-1.65,3-2.61,4.5a22.42,22.42,0,0,1-1.29,2,1.84,1.84,0,0,1,.36.15.67.67,0,0,0,.3,0Zm5.34,1.68a29.69,29.69,0,0,1-.84,3.21c1.47-.12,2.31-.24,3.33-.36s2-.3,3.27-.39a33.93,33.93,0,0,1,4.5-.6,1.42,1.42,0,0,1,1.35.84,31.83,31.83,0,0,1-3.18.66c-.48.09-1.14.18-1.71.3-.42.06-3.18.51-3.3.57a23.11,23.11,0,0,1-2.79.42l-1.38.18a3.93,3.93,0,0,0-1.08.24,1.15,1.15,0,0,1-1.11-.48l-.3-.27a1.1,1.1,0,0,1,.33-.78,2.62,2.62,0,0,1,.24-.3,34.43,34.43,0,0,0,1-3.54c.6-.66,1-.33,1.35-.09l.18.12Zm5.1-8.19A2.57,2.57,0,0,1,87,9.51c-.21.6-.18,1.32-.39,1.74a2.75,2.75,0,0,0-.39,1.08,2.77,2.77,0,0,1-.15.78c0,.12-.09.3-.12.39a16.25,16.25,0,0,0-.33,2.16c-.12.81-.27,1.56-.36,2-.27.66-.87.48-1.2.15l-.06-.3a4.9,4.9,0,0,0,0-.93A4.35,4.35,0,0,1,84.12,15a1.75,1.75,0,0,1,.06-1,2.78,2.78,0,0,0,.12-.57c0-.06,0-.21,0-.3a4.55,4.55,0,0,1,.09-.63,16,16,0,0,0-1.74.72c-.36.15-.72.33-1.11.45L81,14a2.48,2.48,0,0,0-.69.45c-.63.18-.9-.21-1.14-.54-.06-.06-.15-.18-.18-.21a1.39,1.39,0,0,1,.51-.72,18.15,18.15,0,0,1,3.3-1.38c.9-.3,1.68-.57,2.07-.75.06-.09,0-.09,0-.21a1.2,1.2,0,0,1,.21-.54A4.51,4.51,0,0,1,85.35,9a2.84,2.84,0,0,0,.21-1,.72.72,0,0,1,1-.27l.09,0c.24.18.42.3.48.57Z"/><path class="cls-1" d="M95.82,14.76c-.06.6-.12.9-.21,1.44-.15.81-.27,1.62-.36,2.19-.06.3-.09.6-.15,1-.12.72-.15,1-.3,1.65,1-.36,2-.75,3.24-1.26l1.59-.63c.87-.39,1-.54,1.44-.72a.49.49,0,0,1,.48-.21.23.23,0,0,0,.18-.09l.81.06.36.33-.3.51a3.79,3.79,0,0,0-1,.51,5.73,5.73,0,0,1-1,.66,2.31,2.31,0,0,1-1.32.69c-.09,0-.15,0-.18.15l-.9.39a5.42,5.42,0,0,1-1.26.45l-.84.42a1.2,1.2,0,0,0-.66.3,7,7,0,0,0-1.65.63,8.87,8.87,0,0,1-1.83.75,1.39,1.39,0,0,0-.42-.3c-.33-.18-.57-.27-.33-1,.18-.12.48-.27.72-.42a2.84,2.84,0,0,0,.84-.6,7.88,7.88,0,0,0,.63-2.22,11.82,11.82,0,0,1,.24-1.26A9.37,9.37,0,0,1,94,15.93a6.79,6.79,0,0,0,.33-1.35c.12-.36.18-.24.27-.33l.27-.21a3.79,3.79,0,0,1,.78.39l.12.09Zm4.56-8.43a15.25,15.25,0,0,1-.18,2.46.52.52,0,0,0-.12.45c0,.12,0,.57,0,.57A6.48,6.48,0,0,0,99.87,11l-.33,1.5a8.38,8.38,0,0,0-.18,1,4.39,4.39,0,0,1-.81,2.31.82.82,0,0,1-.24.48l-.18.15c-.51,0-.57-.24-.63-.51a.38.38,0,0,0-.18-.21c.54-2.64,1-5.34,1.29-8.1-.39.15-.84.24-1.26.39A17.46,17.46,0,0,0,94,9.36c-.6.09-.81-.33-1-.69-.12-1,.63-1.17,1.29-1.38v0l.42-.18a1.84,1.84,0,0,1,.54-.21l1.14-.33.72-.27.72-.21a3.69,3.69,0,0,0,1.38-.69l.3.15a1.17,1.17,0,0,1,.87.63Zm5.19,4.8a23.94,23.94,0,0,1-.24,3.66c-.06.51-.09.57-.15,1.08,0,0,.09-.06.12-.06a1.83,1.83,0,0,1,.72-.21l1.41-.33h.15c.42-.06.84-.18,1.23-.24l.93-.15.24.51-.06.39a1,1,0,0,0-.33.21l-.57.27-.42.18c-.24,0-.48.09-.69.12l-.48.09a7.28,7.28,0,0,0-2.37,1.08,7.88,7.88,0,0,1-.21,1.26,9.42,9.42,0,0,0-.24,2,.65.65,0,0,0-.12.51c0,.51.09,1-.9,1.11a1.93,1.93,0,0,1-.63-1.89v-.45c.15-1.08.27-2.16.39-3.27.24-2.1.54-4.41.87-6.45.66-.33.81-.09,1,.18,0,.06.06.12.09.12Z"/><path class="cls-1" d="M125,4.17a15.89,15.89,0,0,1-1.74,3A15.18,15.18,0,0,0,122.13,9c.24.06.48.15.51.54.09,1.56.24,3,.36,4.41.18,2,.36,3.81.36,6l-.33.39c0,.09-.24.36-.27.42L122,20.4c0-.57-.12-1.14-.18-1.74-.12-.9-.21-2.16-.24-3.06-.12-.42-.06-.84-.18-1.2-.12-1.47-.18-2.13-.36-3.54a10,10,0,0,0-1.11,2.91c-.18.51-.36.48-.57.42s-.24-.06-.27-.06a.93.93,0,0,0-.45-.39,6.44,6.44,0,0,1,.9-3.3,39.73,39.73,0,0,1,3.3-5.61,1.16,1.16,0,0,0,.3-.54c.21-.6.36-1.23,1.14-.9a.94.94,0,0,1,.57.36c0,.06,0,.09.06.09Zm6.15,14.28c0,.3,0,.63.06.93s0,.66,0,1a5.53,5.53,0,0,1-.09,1.23c.15.21,0,.39-.09.6,0,0,0,0,0,.09a4.2,4.2,0,0,1-1.59,2.85,1.58,1.58,0,0,1-1.35-.42,2.77,2.77,0,0,1-.42-1.44,5.85,5.85,0,0,1,.18-1.32c.06-.36.12-.84.15-1.14s0-.33.06-.54a3.53,3.53,0,0,1,.27-1.14c0-.06,0-.18,0-.24,0-.42,0-.57.63-.87l.3.12a.6.6,0,0,0,.33.09.9.9,0,0,1,.15,1,4.87,4.87,0,0,1-.12.57,7,7,0,0,0-.24,1.8,12.43,12.43,0,0,0-.21,1.8.09.09,0,0,0,0,.06A9.11,9.11,0,0,0,129.9,20c0-.57.09-.81.12-1.44-.21-.27-.09-.45,0-.72A.74.74,0,0,1,131.13,18.45Zm4.5-14.31c-.06.45-.15.9-.24,1.35s-.12.66-.18,1a.78.78,0,0,1,.75.45,1,1,0,0,1-.66.78,1.89,1.89,0,0,0-.3.21,12.73,12.73,0,0,0-.21,2.64,9.74,9.74,0,0,1-.45,3.51.46.46,0,0,0-.15.21c0,.06-.24.33-.24.33-.72-.27-.66-.69-.66-1.2a1.94,1.94,0,0,0-.06-.6c0-.42,0-.69,0-1.08,0-.54,0-1.11,0-1.62s.06-.87.06-1.47a13.42,13.42,0,0,0-1.92.75,6.19,6.19,0,0,1-1.32.6,6,6,0,0,1-.48.42c0,.75,0,1.41-.06,2.07a15,15,0,0,0-.09,1.68.84.84,0,0,0-.18.45,1.55,1.55,0,0,1-.48.9c-1.23,0-1.08-.78-.93-1.5.06-.27.15-.6.06-.75l.12-3a.46.46,0,0,1,0-.69.15.15,0,0,0,0-.09,28.81,28.81,0,0,1,.42-5,.91.91,0,0,1,1-.21c.24.09.48.15.48.57s-.09,1.17-.15,1.74a15.49,15.49,0,0,0-.15,2c.3-.12.63-.27.93-.42a15.78,15.78,0,0,1,2.79-1.08c.09-.42.12-.81.21-1.2a13.38,13.38,0,0,1,.54-2.25c.21-.39.48-.24.72-.15a1.48,1.48,0,0,1,.27.12c.21.06.42.12.48.45Z"/><path class="cls-1" d="M140.52,3.6l.42-.18c.09-.06.36-.18.27-.12a3.07,3.07,0,0,1,.81-.24,3.46,3.46,0,0,1,1.53-.18c.24.09.48.15.54.69a39.84,39.84,0,0,0-.81,6,1.32,1.32,0,0,1-.06.3.92.92,0,0,1-.09.45c0,.06,0,.18,0,.21a1.46,1.46,0,0,0,0,.36l.27,0c.09,0,.21,0,.27-.09a1,1,0,0,1,1.11,0h.54c-.15.81-.48.9-.81,1a4,4,0,0,0-.84.36l-.48.21-.48.18a.33.33,0,0,0-.27.09l-1.26.48a13.41,13.41,0,0,0-2.43,1.14,2.12,2.12,0,0,1-.81-.15c-.06,0-.09,0-.12-.06l-.12-.12a.78.78,0,0,1-.21-.9,8.51,8.51,0,0,1,1.2-.6l.27-.12a2.1,2.1,0,0,1,0-1,3.58,3.58,0,0,1-.12-1c0-.3,0-.57,0-.87l.06-1.62a.91.91,0,0,0,0-.75,3.24,3.24,0,0,0,.12-.9,4.44,4.44,0,0,1,0-.66c0-.27,0-1,0-1.26a6.7,6.7,0,0,1,.09-1.83l.66.36a.83.83,0,0,0,.54.21ZM140.61,5v.39a19.73,19.73,0,0,1-.15,2.58v.57a15.79,15.79,0,0,1,0,1.65,14.68,14.68,0,0,0,0,1.59c.39-.18.9-.3,1.35-.45a3.31,3.31,0,0,1-.06-.54,1.09,1.09,0,0,0-.06-.42c.06-.51.12-1.11.15-1.74a16.53,16.53,0,0,1,.33-2.88c0-.21.09-.42.12-.69a2.07,2.07,0,0,0,.12-.54,1,1,0,0,0-.18.09l-.36.15v.06c0,.33.06.48-.48.48A1.25,1.25,0,0,1,140.61,5Zm9.24-3.36c.27-.12.45.09.72.06.48.6,0,.9-.42,1.05.09,0-.09.06-.27.15l-.87.24a8.36,8.36,0,0,0-2.7,1.08c-.45,0-1.38-.15-1.26-.69s.42-.69,1.23-1a13.24,13.24,0,0,1,1.56-.51c.39-.12.9-.24,1.32-.39Zm4.2,1.77a18.66,18.66,0,0,1-.51,2.43.9.9,0,0,1,0,.69s-.09.75-.12,1.08a5,5,0,0,1-.12,1,2.77,2.77,0,0,0-.09.84,2,2,0,0,1-.15,1,2.55,2.55,0,0,1-.18.69c-.3.12-.57.12-.69-.06l-.27-.57c0-.12-.09-.3-.12-.42a4.22,4.22,0,0,1,0-1.23,3.09,3.09,0,0,0,0-.51l.09-.9a4.14,4.14,0,0,1,.09-.6,6,6,0,0,1-1,.24l-.42.24a2.66,2.66,0,0,1-.78.33,3.4,3.4,0,0,1-.54.21,28,28,0,0,0-3.09,1.44c-.27-.18-.33-.18-.36-.21a.83.83,0,0,1-.63-.63l.06-.48c.72-.36,1.5-.72,2.25-1a6.84,6.84,0,0,0,.84-.39,1.53,1.53,0,0,1,.69-.21c.15,0,.3,0,.36-.15A1.34,1.34,0,0,1,150,6l1.38-.39.3-.15h.42c.06-.42.15-.87.24-1.26,0-.15,0-.24.06-.36s.09-.24.12-.39l.3-2.67a1,1,0,0,1,1.05,0c.27.12.54.21.54.69C154.23,2.1,154.14,2.76,154.05,3.36ZM149.91,15a2.11,2.11,0,0,0,.18.75,4.31,4.31,0,0,1,.24.75,3.82,3.82,0,0,0,.06.66,4.45,4.45,0,0,1-.06,1.77,2.78,2.78,0,0,1-1.59,2.16,2.6,2.6,0,0,1-2.13-2,6.74,6.74,0,0,1-.18-1.44,4.06,4.06,0,0,1,1.29-3.06l.3.06a2.89,2.89,0,0,1,.63.75,1.74,1.74,0,0,0-.27-.63.92.92,0,0,1-.18-1.17,2,2,0,0,1,1.68,1.29Zm-1.26.48c0,.21-.18.3-.3.48a1.12,1.12,0,0,0-.21.48,5.35,5.35,0,0,0-.12,1.17,3.18,3.18,0,0,0,.51,1.89A3.73,3.73,0,0,0,149,17.4V17a4.08,4.08,0,0,1-.21-1.05C148.74,15.87,148.71,15.72,148.65,15.51Z"/><path class="cls-1" d="M159.33,18.3a39.85,39.85,0,0,0,6.27-5.16,16.29,16.29,0,0,0-5.79,1.56,1.33,1.33,0,0,1-.72-1.35,24.34,24.34,0,0,1,7.8-1.86l.39.12a.81.81,0,0,1,.63.27c.45.45.18.69-.06,1a.63.63,0,0,0-.18.24,61.84,61.84,0,0,1-7.44,6.48,9.38,9.38,0,0,0,1.29-.12c.36-.06.81-.12,1.11-.15a22.91,22.91,0,0,1,5.82-.78,2.22,2.22,0,0,0,.36.06,1.29,1.29,0,0,1,1.26.75,7.08,7.08,0,0,1-2.7,2.85,30.57,30.57,0,0,0-2.79,1.8c-.45.33-.9.63-1.32.9-1,.66-1.74,1.05-2.61,1.59-.24.12-.51.3-.78.42a3.58,3.58,0,0,0-.48.24,9.75,9.75,0,0,0,1.35-.21,13.8,13.8,0,0,1,2-.21c.66-.12,1.53-.24,2.31-.33l.84-.09c2.73-.39,6.33-.81,9-1l.75,1-1.29.12a2.37,2.37,0,0,1-.84.12l-.09.09-1.38.18a.64.64,0,0,1-.51.06,2,2,0,0,1-.33.06.38.38,0,0,0-.18,0c-2.43.33-4.86.66-7.2.93-.48.09-.93.18-1.32.27a17.88,17.88,0,0,1-3.54.42c-.09,0-.15,0-.21,0-.84.06-2.1.21-2.67-1.08l.6-.57a85.61,85.61,0,0,0,10.8-6.69,1.21,1.21,0,0,1,.39-.39c-.36,0-.72,0-1,.06a5.23,5.23,0,0,1-.69.09h0a2.72,2.72,0,0,1-.69.09l-.54.06a1.62,1.62,0,0,0-.57.09l-1,.27a2.51,2.51,0,0,0-.93.24l-2.7.39a2.19,2.19,0,0,1-1.86-.57c0-.09-.09-.15-.15-.24s-.36-.45,0-.84C158.22,19.14,158.76,18.72,159.33,18.3Zm10.2-11,.33.36a8.81,8.81,0,0,1-1.74.51,5.94,5.94,0,0,0-1.44.36,2.53,2.53,0,0,0-1,.21,31.5,31.5,0,0,0-7.2,2.61c-.48,0-.87-.51-1.05-.84v-.18a.51.51,0,0,1,.18-.39,38.82,38.82,0,0,1,6.42-2.22c.18-.21.36-.15.6-.15.06,0,.18,0,.15,0A5.12,5.12,0,0,1,167,7.11a.88.88,0,0,1,.54-.21l.24,0c.39-.21.78,0,1.14.06l.42.09ZM164.76.81c0,.12,0,.27,0,.39a10.25,10.25,0,0,1-1.26,5.07c-.3.42-1,.24-1.32.15a4.45,4.45,0,0,1-1-3,9.06,9.06,0,0,1,.3-2.25c.24-.42.63-.24.9-.09,0,0,0,0,.12,0l.33.33a6.65,6.65,0,0,0-.24,1.65,7.78,7.78,0,0,0,.15,1.41,10.59,10.59,0,0,0,.51-2.61c0-.24,0-.15.06-.42-.24,0-.42-.21-.51-.6s.24-.51.45-.63a1.94,1.94,0,0,0,.27-.24,2.15,2.15,0,0,1,1.17.63Z"/><path class="cls-1" d="M186.84,15.63a8.86,8.86,0,0,1,.06,1.29,23.86,23.86,0,0,1-.21,3,21.32,21.32,0,0,0-.21,2.73,9.44,9.44,0,0,0-.09,1.32,6.28,6.28,0,0,1-.63,2.88,15.18,15.18,0,0,1-.63-4.23c0-1.17.09-2.43.18-3.63.06-.81.12-1.65.15-2.43a1.46,1.46,0,0,0,0-.51c0-.06-.06-.15-.09-.21l-.21.3c-.72,1-1.44,1.8-2.19,2.7-.3.33-.54.63-.84,1-.09,0-.15.09-.24.15s-.45.33-1-.09c.51-.81,1.14-1.65,1.65-2.43a79.21,79.21,0,0,0,5-7.92s.15-.36.27-.63.18-.18.21-.45c-.72.06-1.32.24-2,.36s-1.14.24-1.74.33c0,0-.06,0-.12.06-.45.24-.9.48-1.32.24a1,1,0,0,1-.33-1.17,11.81,11.81,0,0,1,3.18-.81,13.55,13.55,0,0,0,2.7-.6c.39-.18.66-.57,1-.3l.12.12c.24.15.45.3.45.63a23.58,23.58,0,0,1-4,7.56,1.3,1.3,0,0,1,.84.69Zm7-4.32a47.93,47.93,0,0,0-1,6.27,3.17,3.17,0,0,0-.18.84,2.56,2.56,0,0,1-.63,1.2,5.56,5.56,0,0,1-.27-1.41,6,6,0,0,1,.09-1.08,39.73,39.73,0,0,1,.93-7.44l.36-2.25c.54-.78.87-.27,1.14.15a1.62,1.62,0,0,1,.21.42C194.28,9.12,194.07,10.2,193.83,11.31Z"/><path class="cls-1" d="M202.68,14.88c-.12.45-.24,1-.36,1.44a13.93,13.93,0,0,1-.54,1.95,8.43,8.43,0,0,1-1.83,4c-.33-.81-.27-1-.18-1.32a1.33,1.33,0,0,0,.09-.57,1.3,1.3,0,0,1,.15-.63s0,0,0-.09a3.76,3.76,0,0,1,.12-1c0-.15.09-.39.12-.51a.24.24,0,0,0,.12-.24c0-.15-.15-.24.06-.45,0-.15.06-.21.09-.36a1.52,1.52,0,0,0,.06-.39v-.15a4.58,4.58,0,0,1-.9.42c-.21.12-.42.21-.63.33a7.07,7.07,0,0,0-1.71,1.08c-.57.21-1-.27-1.26-.66a2.14,2.14,0,0,1,1-1.14.45.45,0,0,1,.24-.12c.39-.21,1.26-.51,2-.78.51-.18,1.05-.45,1.56-.66a2.12,2.12,0,0,0,.18-.75c.06-.39.12-.78.21-1.14a11.42,11.42,0,0,0,.3-2.1,2,2,0,0,0,.15-.9c0-.12,0,0,0-.15a18.67,18.67,0,0,0-2.49.75c-.36.15-1,.36-1.38.48a1.53,1.53,0,0,0-.33-.48c-.3-.27-.57-.54-.18-1l1.74-.6c1.23-.42,2.52-.84,3.63-1.14.93.06.87.69.78,1.2,0,.12-.06.21,0,.27l-.36,2.82A1.9,1.9,0,0,0,203,13a3.13,3.13,0,0,1-.21.84,2.9,2.9,0,0,1-.12.87Zm5.91-6.27a5,5,0,0,1-.09,1.2,3.06,3.06,0,0,0-.09.9,1.24,1.24,0,0,0,0,.36,1.67,1.67,0,0,1-.06.51.58.58,0,0,0-.09.3,1,1,0,0,1-.06.42c-.06.66-.12,1.41-.21,2.13s-.21,1.68-.27,2.52a.43.43,0,0,0-.06.12c0,.3,0,.6,0,.9a9.77,9.77,0,0,1-.51,3.63l-.3.24a1.51,1.51,0,0,1-.84.21,120.56,120.56,0,0,1,1.05-13,.43.43,0,0,1-.06-.18c-.06-.12-.12-.3-.15-.36a2.61,2.61,0,0,1,.63-.51,1.41,1.41,0,0,1,1.11.48Z"/><path class="cls-1" d="M221,14.64a2.72,2.72,0,0,0-.33.18l-.36.18a8.51,8.51,0,0,1-1.86.93l-2.25.87-1.14.51a6.26,6.26,0,0,1-1.23.51c-.63.27-1.23.51-1.86.75a2.83,2.83,0,0,1-1.2.3c-.18-.18-.18-.12-.21-.15A.8.8,0,0,1,210,18c0-.39.24-.36.42-.42a.65.65,0,0,0,.24-.15c.51-.18,1.05-.42,1.59-.66.72-.3,1.62-.63,2.25-.84l1.05-.42a3.42,3.42,0,0,0,.66-.21A5.63,5.63,0,0,1,218,14.7l.54-.24c1.14-.45,1.29-.54,1.65-.48t.18-.09a2.45,2.45,0,0,1,.78.27Zm-5.88,5.7a9.93,9.93,0,0,1-.6,2.28,8.34,8.34,0,0,0-.39,1.38l9.12-2.28a12.93,12.93,0,0,0,1.32-.27,8.14,8.14,0,0,1,1.23-.12,1.75,1.75,0,0,1,.69-.06,1.49,1.49,0,0,0,.54-.09.81.81,0,0,1,.54.39c0,.27-.54.51-1.41.72l-1.83.54-2.58.75a16.66,16.66,0,0,0-2.1.48c-.27.15-1.17.39-1.2.42a1.91,1.91,0,0,1-.69.15,1.81,1.81,0,0,1-.57.18,2.44,2.44,0,0,1-.51.12,24.45,24.45,0,0,1-3.69.9,1.4,1.4,0,0,1-.84-1.23,30.23,30.23,0,0,0,1.26-4.05c.06-.21.12-.51.18-.72.39-.51,1.32-.06,1.5.36ZM215.46,3a27,27,0,0,0-.57,3.09c-.15,1-.3,2-.45,2.64L216,8.25c.48-.15,1.35-.39,1.29-.36l.72-.27a1.69,1.69,0,0,0,.36-.12l.33-.09c.3-.09.63-.21,1-.3a11.1,11.1,0,0,1,1.2-.27l1.83.06a7.31,7.31,0,0,1-1.14.72c-.36.18-.81.33-.81.45L219,8.88a2.75,2.75,0,0,0-1,.36l-1.74.6c-1,.33-2.07.66-3.06.93a.44.44,0,0,0-.24-.09c-.18,0-.3.09-.72-.36.06-.18,0-.24,0-.3a2,2,0,0,1-.06-.54.69.69,0,0,0,.48-.42c0-.06.12-.24.09-.21.42-2.13.9-4.65,1.29-6.81.45.09,1.29.27,1.47.81Z"/><path class="cls-1" d="M226.92,20.61a15.16,15.16,0,0,1-.24,3.33c-.06.42-.12.93-.18,1.35l-.18,1.05a3.61,3.61,0,0,1-.81,2.13.59.59,0,0,1-.81-.42,7.68,7.68,0,0,1-.09-1.17,14.36,14.36,0,0,1,.24-2.34,9.32,9.32,0,0,0,.18-1.47,6.28,6.28,0,0,1,.12-.84,7.75,7.75,0,0,0,.18-1.59,1.82,1.82,0,0,1,1.35-.3Z"/><path class="cls-1" d="M241.71,12.09a19.7,19.7,0,0,1,.12,2.34,61.6,61.6,0,0,1-.45,6.36,6.87,6.87,0,0,1-.42,2.07.82.82,0,0,0-.27.45,4.4,4.4,0,0,1-.18.42c-.18,0-.3.06-.36.06l-.54.24a64.77,64.77,0,0,0,.57-8,30.71,30.71,0,0,0-.15-3.3c-.21.33-.45.66-.66,1l-1.47,2-.63.3h-.36c-.24-.36-.06-.54-.24-.72.66-1.32,1.62-2.73,2.4-4a31.27,31.27,0,0,0,3.09-5.55c.18-.66.81-.51,1.23-.27a1.06,1.06,0,0,1,.18,1.23,36.65,36.65,0,0,1-2.7,4.8.77.77,0,0,1,.81.48ZM249,7.26c-.18,1.56-.48,3.24-.78,4.74v.12l.87-.36a15.36,15.36,0,0,1,3-1,2,2,0,0,1,.81-.24.59.59,0,0,0,.27,0c.27-.15.6.18.75.33a1.5,1.5,0,0,1-.87.75,1,1,0,0,0-.36.18c-.36.15-.84.3-1.17.45a24,24,0,0,0-2.22.93l-.45.15-.93.54c0,.24-.06.81-.09,1.29s-.06,1-.12,1.47a10.62,10.62,0,0,1-.63,2.88c-.27.36-.42.45-.72.48-.63,0-.63-.27-.63-.6,0,0,0-.21,0-.21a24.26,24.26,0,0,0,.57-4.08,28.57,28.57,0,0,1,.45-3.63A18.5,18.5,0,0,1,247,9.54a17.7,17.7,0,0,0,.33-2.49c.45-.93,1.35-.36,1.62,0Z"/><path class="cls-1" d="M259.41,1.17a9.59,9.59,0,0,1-1,3.45c-.72,1.38-1.53,3-2.28,4.38a2.07,2.07,0,0,0,.3-.12A6.66,6.66,0,0,1,259,8.16a3.84,3.84,0,0,1,1,.18,1.27,1.27,0,0,1,.24,1.41.23.23,0,0,0,0,.12,16.36,16.36,0,0,1-2.28,3.51c-.42.51-.84,1-1.23,1.62A36.25,36.25,0,0,1,263,12.75a3.39,3.39,0,0,1,.45-.12,1.4,1.4,0,0,0,.57-.18c0-1.35.18-2.61.33-3.87s.24-2.49.3-3.69l.18-.06a.47.47,0,0,1,.48-.3c.39.06.9.21,1,.78l-.39,4c.15-.09.27-.21.42-.3a7.93,7.93,0,0,1,1.71-.9,6.5,6.5,0,0,0,.78-.36,6.79,6.79,0,0,1,1.29-.51,3,3,0,0,1,1-.36,1.25,1.25,0,0,0,.78-.36,3.65,3.65,0,0,0,1.29-.09c.06,0,.72,0,.09,1.08L272,8a32.22,32.22,0,0,0-4.5,2.19c-.06,0-.15.12-.24.18a4.08,4.08,0,0,0-1.08,1,.83.83,0,0,1-.42.27,1,1,0,0,1,0,.3c-.06.57-.15,1.32-.15,1.89a6.51,6.51,0,0,0,.18,1.44c-.27.48-.51.36-.78.36l-.39-.12a.83.83,0,0,1-.51-.54,4.25,4.25,0,0,1-.06-.9c0-.3.06-.18,0-.45-.57.24-1.08.42-1.65.63-.09,0-.21.09-.72.33a.51.51,0,0,1-.15.06,22.45,22.45,0,0,0-6.66,3.48,1.69,1.69,0,0,1-1.11-.33c-.42-.36-.21-1-.06-1.44,0-.06,0-.09.06-.15.54-.84,1.2-1.65,1.86-2.49a23.65,23.65,0,0,0,2.64-3.75,8.72,8.72,0,0,0-.84.3,5.09,5.09,0,0,1-1.8.51,1.78,1.78,0,0,1-1.56-.9,4.6,4.6,0,0,1,.87-2.31c.12-.24.33-.57.45-.81a33.56,33.56,0,0,0,2-4.2,6.67,6.67,0,0,0-2.34,1.56,1.24,1.24,0,0,1-1.41-.63A3.37,3.37,0,0,1,255,1.92,17.92,17.92,0,0,1,256.86,1c.33-.15.69-.3,1.23-.6a1.77,1.77,0,0,1,1.23.57Zm3.84,17.34a18.25,18.25,0,0,1-.6,3,15.82,15.82,0,0,0-.57,2.28l1.68-.3c1.71-.33,3.09-.6,5.31-.87a9.38,9.38,0,0,1,2.16-.3,16.06,16.06,0,0,0,1.68-.21c1,.48.48.84.39.93a1.64,1.64,0,0,1-.69.3c-1.5.18-3.24.51-4.86.84l-1.71.36-.9.18c-1.35.27-1.41.24-3.24.72-.06.57-.24,1.23-.93,1.41-.81,0-.78-.42-.69-.87v-.12c-.09,0-.18,0-.66.12a6.23,6.23,0,0,0,0,.75c0,.33,0,.69,0,1a1.53,1.53,0,0,1-1,.36,1.88,1.88,0,0,1-.51-1.44c0-.21,0-.06,0-.24-.09,0-.27.12-.39.15a3.59,3.59,0,0,1-.51.18,6.62,6.62,0,0,0-2,1,1.26,1.26,0,0,1-1.35-.24c-.18-.66.33-1,.75-1.23.15-.09.42-.3.36-.24a8.44,8.44,0,0,1,2.16-.84v0c.33-.12.54-.15.93-.3,0-.06.06-.21.09-.27a22.48,22.48,0,0,1,.09-2.49c.06-.69.12-1.17.12-1.83a10,10,0,0,0-.09-1.29v0c-.09-.33.3-.72.6-.84.06,0,.12,0,.21,0,.39,0,.84.06.93.63l0,.12a7.53,7.53,0,0,1,1.83-1.23c.54,0,1.26,0,1.44.6ZM261.3,20a.11.11,0,0,1-.09,0c-.18.15-.45.39-.48.6-.42.33-.6.21-.72.15,0,.84-.09,1.47-.15,2.25s-.12.87-.15,1.5c.24-.06.39-.09.66-.18.06-.18.06-.42.27-1.5.09-.51.21-1,.36-1.56C261.09,20.82,261.21,20.37,261.3,20Z"/><path class="cls-1" d="M276.69,11.76a17.3,17.3,0,0,1-.27,3.3.57.57,0,0,1-.09.66.23.23,0,0,1-.06.09,4.82,4.82,0,0,1-1.92,2.43,1.43,1.43,0,0,1-1.29-.12,2.8,2.8,0,0,1-.63-1.86,8.7,8.7,0,0,1,.3-2.07l.15-.45a12,12,0,0,1,1.2-3c-.18-.09-.3-.24.06-.6a1.12,1.12,0,0,1,.6-.21.6.6,0,0,0,.33-.09c1.14.18,1.41,1.14,1.62,1.86ZM274,16.59s.09-.06.09-.06a6.6,6.6,0,0,0,1.05-3.75,8.43,8.43,0,0,0,0-.87c-.12.3-.18.54-.3.84a3.77,3.77,0,0,1-.45,1.14,8.9,8.9,0,0,0-.36,2.34Zm7.53-5.31a5,5,0,0,0-.21,1.23,3.26,3.26,0,0,1,0,.54,9.68,9.68,0,0,1-.15,1.47c-.06.33-.09.66-.12,1a7.65,7.65,0,0,0-.06,1.17,3.68,3.68,0,0,1-.57,2.37l-.84.3c0-.36,0-1,0-1.35a68.26,68.26,0,0,1,.51-7.32c.12-1.23.27-2.58.36-3.78a.72.72,0,0,1,1-.24,1.22,1.22,0,0,1,.6,1.47,2.66,2.66,0,0,0,0,.69,4.61,4.61,0,0,0-.24,1.38,4.16,4.16,0,0,1-.09.9Z"/><path class="cls-1" d="M307.71,12.3l.57.39a1.7,1.7,0,0,1-1.65.81,1.79,1.79,0,0,0-.9.15,28.43,28.43,0,0,0-3.87.75v.09l-.18,1.08c0,.06,0,.18,0,.21-.18,1.2-.3,2.25-.42,3.39,0,.27-.06.9-.09,1.2a11.13,11.13,0,0,1,.39,3,7.22,7.22,0,0,1-.87,3.63,2.11,2.11,0,0,0-.3.21c-.33.3-.66.57-1.11.42-1.05-.24-1.56-1-1.5-2.55a13.68,13.68,0,0,1,.87-3.51.52.52,0,0,1,.51-.09.69.69,0,0,1-.06-.45,1,1,0,0,1,.6-.9c0-.42,0-.9.06-1.32a22.71,22.71,0,0,1,.42-4.11,5.71,5.71,0,0,0-.84.21,5.52,5.52,0,0,1-1.26.24c-.3.09-.75.24-1,.3a23.07,23.07,0,0,0-4.2,1.44c-1.26.36-1.11-.42-1.41-1.11a42.33,42.33,0,0,1,11.82-3.15c-.09,0,.42-.06.66-.09h0a3.89,3.89,0,0,1,.78-.09c.21,0,.66-.06,1.05-.09s.78-.06,1.53-.18ZM302.79,1.2a3.27,3.27,0,0,1-.66,1.23l-.36.51a39.78,39.78,0,0,1-5.22,5.73,3.37,3.37,0,0,0-.48.39,5.06,5.06,0,0,1-1.77,1.23.62.62,0,0,1-.21-1.08.23.23,0,0,0,.12-.12.61.61,0,0,1,.33-.39,4.49,4.49,0,0,1,.33-.39l2.07-2.16c.45-.51.9-1,1.71-1.89.09-.06.21-.12.66-.72a.82.82,0,0,0,.42-.42,2.78,2.78,0,0,1,.42-.66,1.57,1.57,0,0,1,.21-.36,26.38,26.38,0,0,0-4.68,1.38c-.66,0-.78-.27-.87-.6,0-.06-.09-.24-.09-.24l.06-.54c2.4-.81,4.8-1.26,7.11-1.95a1.46,1.46,0,0,1,.87.87ZM300,22.47a1.19,1.19,0,0,0-.18-.69,10.81,10.81,0,0,1-.21,2,8.84,8.84,0,0,0-.24,2.37C299.91,25.44,300,23.49,300,22.47ZM310.35,5.85a.54.54,0,0,1-.09.33,2.92,2.92,0,0,1-1.41.42c-.24,0-.51.06-.78.12a26.27,26.27,0,0,0-5.46,1h0c-.45.12-.78.18-1.2.3-.81.21-.84-.09-.9-.51a.38.38,0,0,0-.12-.21l.21-.57a31.5,31.5,0,0,1,4.8-1.17c1.05-.12,1.47-.12,1.89-.15s.93-.06,1.38-.06a8.5,8.5,0,0,1,.9.06.27.27,0,0,0,.15,0,1,1,0,0,1,.54.27Z"/><path class="cls-1" d="M318,11.76c0,.24,0,.69,0,.9l-.06.12a33.11,33.11,0,0,1-.33,3.87c-.09.57-.15,1.2-.21,1.74s-.15.87-.21,1.35a8.28,8.28,0,0,1-.39,2.07.64.64,0,0,1-.81-.06,7.23,7.23,0,0,1,.06-2.1,1,1,0,0,1-.06-.72.39.39,0,0,0-.06-.3L316,18a1.29,1.29,0,0,1,.06-.36l0-.69a.62.62,0,0,1,.09-.39,1.21,1.21,0,0,1,0-.57c0-.24.09-.36.09-.51s0-.45,0-.45v-.15c0-.18.12-.54.06-.6l0-.42c0-.15,0-.33.06-.51a2.69,2.69,0,0,1,.06-.54c0-.27,0-.54,0-.81a10.67,10.67,0,0,0-.15-2.55c-.36.48-.66,1-1,1.5A22.53,22.53,0,0,1,310.41,17l-.39-.36c.18-.24.45-.75.69-1.14a11.37,11.37,0,0,1,1.41-2,18.32,18.32,0,0,1,1.29-1.95c.06-.39.27-.48.42-.69a1.35,1.35,0,0,0,.3-.42,5.26,5.26,0,0,1,.33-.72,7.12,7.12,0,0,0,.69-1.14c.06-.15.24-.42.3-.54l.75-1.17s0,0,.21-.3l.57-.87a2.27,2.27,0,0,0,.3-.42.88.88,0,0,1,.33-.63c.06-.06.06-.12,0-.27a4.49,4.49,0,0,0,.42-.75l.21-.42c.15-.36.39-.93.54-1.23s.24-.51.36-.75c-.09-.12-.06-.21,0-.36.33-.51.57-.51.81-.51.06,0,.12,0,.36-.12l.39.63a29.25,29.25,0,0,1-4.23,8.28c.48-.24,1.2-.36,1.38.36A11.44,11.44,0,0,1,318,11.76Zm4.44,5.4c.33-.18.54-.21.9-.39a25.27,25.27,0,0,1,2.82-1.14h.21a.76.76,0,0,1,.81.33.84.84,0,0,1-.27,1.05c-.09.09-.18.18-.18.15a12.49,12.49,0,0,0-.84,3.69c0,.09-.06.27-.09.39a4.41,4.41,0,0,0-.15.78,1.07,1.07,0,0,1-.06.3l.45-.09a4.32,4.32,0,0,1,1.11-.15,12,12,0,0,1,3-.66,1.9,1.9,0,0,1,.69-.09c.09,0,.36,0,.45-.09a2.4,2.4,0,0,1,.57-.06c.21,0,.8-.3,1-.06a1.21,1.21,0,0,1,.34-.09c.33,0,.47.39.47.69a.62.62,0,0,1-.54.24l-1.23.27a3.16,3.16,0,0,1-1,.3,4.58,4.58,0,0,0-1,.27,2.05,2.05,0,0,1-1,.18,1.33,1.33,0,0,0-.54.06,9.56,9.56,0,0,1-1.56.39,5.94,5.94,0,0,0-1.05.24,1.39,1.39,0,0,0-.27.09,1.07,1.07,0,0,1-.27.12A2.87,2.87,0,0,1,324.3,25a2.3,2.3,0,0,0-.51-.15.73.73,0,0,1-.18-.63,13.53,13.53,0,0,0-1.74.45l-.27.09c0,.06,0,.12,0,.21a1.07,1.07,0,0,1-.42.78l-.33,0c-.3-.06-.45,0-.6-.51v-.06a13.75,13.75,0,0,0-2.37.81l-.78.36c-.45.15-.81-.21-1.05-.48l-.18-.18c.27-.75.54-.69.84-.81a1.43,1.43,0,0,0,.48-.24c.84-.3,1.89-.63,2.76-.93a1,1,0,0,0,.39-.09,3.22,3.22,0,0,1,.18-1l.06-.45a1.72,1.72,0,0,0,0-.42l.12-.87V19l.15-.75c.06-.75.09-1.53.15-2.28.45-.3,1.32-.54,1.53.3a.53.53,0,0,0,0,.18Zm1.5,5.55c.12-.57.15-1.14.27-1.71.24-1.32.33-2.13.66-3.36-.06,0,0,0,0,0A10.29,10.29,0,0,0,322.35,19c0,.3,0,.54-.06.87-.09,1.08-.15,2.34-.33,3.24l.81-.18ZM330.33.78a47.53,47.53,0,0,0-1.23,7.44,1.46,1.46,0,0,0,0,.36,3,3,0,0,1-.09.87,6.58,6.58,0,0,1-.69,3.78l-1,.36V12.9a1.85,1.85,0,0,1,.12-.87.1.1,0,0,1,0-.06l.12-.63v-.78a5.12,5.12,0,0,0,0-1.35,6,6,0,0,1,.12-1.8V7.26a50.22,50.22,0,0,1,1.08-7c.39-.27,1.65-.36,1.56.48Z"/><path class="cls-1" d="M337.14,11.76a17.3,17.3,0,0,1-.27,3.3.57.57,0,0,1-.09.66.23.23,0,0,1-.06.09,4.82,4.82,0,0,1-1.92,2.43,1.43,1.43,0,0,1-1.29-.12,2.8,2.8,0,0,1-.63-1.86,8.7,8.7,0,0,1,.3-2.07l.15-.45a12,12,0,0,1,1.2-3c-.18-.09-.3-.24.06-.6a1.12,1.12,0,0,1,.6-.21.6.6,0,0,0,.33-.09c1.14.18,1.41,1.14,1.62,1.86Zm-2.67,4.83s.09-.06.09-.06a6.6,6.6,0,0,0,1.05-3.75,8.43,8.43,0,0,0,0-.87c-.12.3-.18.54-.3.84a3.77,3.77,0,0,1-.45,1.14,8.9,8.9,0,0,0-.36,2.34ZM342,11.28a5,5,0,0,0-.21,1.23,3.26,3.26,0,0,1,0,.54,9.68,9.68,0,0,1-.15,1.47c-.06.33-.09.66-.12,1a7.65,7.65,0,0,0-.06,1.17,3.68,3.68,0,0,1-.57,2.37l-.84.3c0-.36,0-1,0-1.35a68.26,68.26,0,0,1,.51-7.32c.12-1.23.27-2.58.36-3.78a.72.72,0,0,1,1-.24,1.22,1.22,0,0,1,.6,1.47,2.66,2.66,0,0,0,0,.69,4.61,4.61,0,0,0-.24,1.38,4.16,4.16,0,0,1-.09.9Z"/><path class="cls-1" d="M361.92,4.11c.3.54-.09.63-.09,1-1,.3-2.16.63-3.21.9a29.38,29.38,0,0,0-3.84,1.08l-1.14.51a1.33,1.33,0,0,1-1.11-.33c0-.21-.06-.27-.09-.3s-.18-.42-.06-.57.24-.33.45-.39a24.41,24.41,0,0,0,4.32-1.26.85.85,0,0,1,.36-.12l3.66-.48ZM359.19,13a20.54,20.54,0,0,0-.6,4.2l-.12,1.65c0,.33.06.48.09.81.18,0,.24-.09.42-.15a2.42,2.42,0,0,1,.66-.21c.54-.18,1.29-.36,1.8-.51a20.21,20.21,0,0,0,3.06-.87h.27a.71.71,0,0,1,.84,0c.39.33.3.75,0,1.2l-.78.15c-1.05.39-2.46.84-3.93,1.32-2,.63-4,1.2-5.52,1.83-.09.06-.3.24-.45.36a1.32,1.32,0,0,1-1.41.36c-.33-.24-.69-.57-.42-1.08a13,13,0,0,1,4-1.92s0-.06-.09-1.05a15.63,15.63,0,0,1-.09-1.65,16.62,16.62,0,0,1,.45-3.72c-.6.24-1.23.42-1.86.63s-1-.33-1.11-.72v0a1.18,1.18,0,0,1,.06-1.14,20.52,20.52,0,0,0,1.14-3.84c.06-.24.12-.51.18-.78a.44.44,0,0,0,0-.21c.09-.75.24-.78.81-.48,0,0,.06.06.09.06a1.84,1.84,0,0,1,.57.6c-.18.9-.36,1.68-.45,2.16a4.88,4.88,0,0,1-.36,1.47,3.75,3.75,0,0,0-.24,1,1.27,1.27,0,0,0,.36-.12,2.45,2.45,0,0,1,.78-.18,12.17,12.17,0,0,1,2.82-1c.15,0,.48-.15.66-.21a4.11,4.11,0,0,0,1.29-.24l.6.12s-.09.66-.24.66l-2.13,1ZM367,15.15a3.82,3.82,0,0,1,0-.6,1,1,0,0,0,0-.66c0-.12,0-.33,0-.48a5.29,5.29,0,0,0,0-.69c0-.24-.06-.81-.06-1.08,0-.06,0-.09,0-.18v0c-.12-.33-.27-.66.09-1a1.19,1.19,0,0,1,1.28.3l.22.21c.05.93.12,1.83.12,2.82a45.07,45.07,0,0,1-.75,7.41,1.82,1.82,0,0,0-.15.54,4.26,4.26,0,0,1-.15.66c-.06.33-.12.72-.18,1-.12.6-.27,1.2-.42,1.92-.48-.21-.66.27-1-.33a3.82,3.82,0,0,1,.09-1.83l.06-.66a1.1,1.1,0,0,1,.18-.66,6.41,6.41,0,0,1,.15-1.35,9,9,0,0,0,.18-1.83C366.78,17.28,366.9,16.17,367,15.15Z"/><path class="cls-1" d="M381.66,14.64a2.72,2.72,0,0,0-.33.18L381,15a8.51,8.51,0,0,1-1.86.93l-2.25.87-1.14.51a6.26,6.26,0,0,1-1.23.51c-.63.27-1.23.51-1.86.75a2.83,2.83,0,0,1-1.2.3c-.18-.18-.18-.12-.21-.15a.8.8,0,0,1-.51-.75c0-.39.24-.36.42-.42a.65.65,0,0,0,.24-.15c.51-.18,1.05-.42,1.59-.66.72-.3,1.62-.63,2.25-.84l1.05-.42a3.42,3.42,0,0,0,.66-.21,5.63,5.63,0,0,1,1.74-.57l.54-.24c1.13-.45,1.29-.54,1.65-.48t.18-.09a2.55,2.55,0,0,1,.78.27Zm-5.88,5.7a9.93,9.93,0,0,1-.6,2.28,8.34,8.34,0,0,0-.39,1.38l9.12-2.28c.38-.06.86-.15,1.32-.27a7.89,7.89,0,0,1,1.23-.12,1.73,1.73,0,0,1,.69-.06,1.55,1.55,0,0,0,.54-.09.84.84,0,0,1,.54.39c0,.27-.54.51-1.42.72l-1.83.54-2.57.75a15.71,15.71,0,0,0-2.1.48c-.27.15-1.17.39-1.2.42a1.91,1.91,0,0,1-.69.15,1.81,1.81,0,0,1-.57.18,2.44,2.44,0,0,1-.51.12,24.45,24.45,0,0,1-3.69.9,1.4,1.4,0,0,1-.84-1.23,30.23,30.23,0,0,0,1.26-4.05c.06-.21.12-.51.18-.72.39-.51,1.32-.06,1.5.36ZM376.17,3a27,27,0,0,0-.57,3.09c-.15,1-.3,2-.45,2.64l1.59-.48c.48-.15,1.35-.39,1.29-.36l.72-.27a1.69,1.69,0,0,0,.36-.12l.33-.09c.3-.09.63-.21,1-.3a11.52,11.52,0,0,1,1.19-.27l1.84.06a7.18,7.18,0,0,1-1.15.72c-.35.18-.8.33-.8.45l-1.83.81a2.75,2.75,0,0,0-1,.36l-1.74.6c-1,.33-2.07.66-3.06.93a.44.44,0,0,0-.24-.09c-.18,0-.3.09-.72-.36.06-.18,0-.24,0-.3a2,2,0,0,1-.06-.54.69.69,0,0,0,.48-.42c0-.06.12-.24.09-.21.42-2.13.9-4.65,1.29-6.81.45.09,1.29.27,1.47.81Z"/><path class="cls-1" d="M399.81,13.23c.12,2.16.12,4.62.12,6.93l-.1.75a13.09,13.09,0,0,1-.29,1.68l-.25.12a.64.64,0,0,1-.65.18,1.33,1.33,0,0,1-.31-1,23.18,23.18,0,0,0,.13-2.67c0-1.65-.09-3.3-.18-4.86,0-.45,0-.87-.06-1.29a51.36,51.36,0,0,1-3.33,4.08l-.27-.75a1.73,1.73,0,0,1,.42-1.08c.06-.15.24-.6.36-.6l.36-.54a3.75,3.75,0,0,1,.24-.36,1.27,1.27,0,0,0,.27-.75l.33-.27,0-.09a5.21,5.21,0,0,1,.67-.78l.27-.39a6,6,0,0,0,.36-.57,3.52,3.52,0,0,0,.78-1.2l.3-.36c0-.06.66-1,.75-1.2-.84.21-1.68.48-2.55.78a9.25,9.25,0,0,0-2.37,1.29,1.24,1.24,0,0,1-.57-1.53,4.12,4.12,0,0,1,1.89-1c.45-.24.93-.21,1.29-.39h0c.39-2.19.81-4.41,1.11-6.42.33-.75,1.2-.24,1.52,0l.13.3c-.15.81-.36,1.71-.57,2.58a27.93,27.93,0,0,0-.6,3c.06,0,.18,0,.27-.06a9.7,9.7,0,0,0,1.62-.57.73.73,0,0,1,.78,0l.14.06a.76.76,0,0,1,.31,1c0,.06,0,.09,0,.12-.14.21-.35.57-.5.81-1,1.47-1.92,2.88-3,4.35.1,0,.21,0,.34,0s.12.06.35-.06Zm17.3,11.34.06.06a2.57,2.57,0,0,0-.69.15,1.26,1.26,0,0,1-.87.15A1.39,1.39,0,0,1,415,25a1.26,1.26,0,0,0-.66.15h-.51a.76.76,0,0,1-.45.09.66.66,0,0,1-.42.06.32.32,0,0,0-.21.06c-1.23.24-1.68.3-2.16.36s-1,.12-2.07.3-1.8.33-2.67.51l-1.53.3-1.14.27a15.06,15.06,0,0,1-4.43.63,1.15,1.15,0,0,1-.81-1.14c0-.06,0-.3,0-.36a26,26,0,0,1,4.84-2.88c.71-.36,1.35-.69,2-1.08l1-.63a9.65,9.65,0,0,0,1.86-1.23,3.49,3.49,0,0,1-.54.12,1,1,0,0,0-.36.06,1.72,1.72,0,0,0-.36.09,8,8,0,0,1-3.08.33.76.76,0,0,1-.48-.93v-.24a8,8,0,0,0,.83-.9,7.23,7.23,0,0,1,1.68-1.5.69.69,0,0,1,.39-.36,7.63,7.63,0,0,1,.84-.87c-.72.12-1.53.3-2.22.48l-.54.15a1.72,1.72,0,0,1-1,.3.85.85,0,0,1-.54-.81c0-.06-.07-.21-.09-.36a1.53,1.53,0,0,1,1.34-.75,1.49,1.49,0,0,0,.69-.21c.79-.09,1.71-.24,2.49-.39.21,0,.42-.09.63-.12a1.49,1.49,0,0,1,.46-.12,1.47,1.47,0,0,0,.32-.06,5.22,5.22,0,0,1,.21-2.91c.09-.33.18-.66.24-1L407,11a7.44,7.44,0,0,0-1.61.69c-.21.12-.48.24-.63.33a8.58,8.58,0,0,0-1.92,1.32,1,1,0,0,1-.91-.75c-.11-.51.16-.78.52-1.05a2.72,2.72,0,0,1,.81-.57l.65-.27c.27-.33.63-.27.87-.51l.84-.33a.71.71,0,0,0,.45-.12,2.37,2.37,0,0,1,.34-.15.79.79,0,0,0,.32-.15,21.73,21.73,0,0,0,2.13-.75c.06-.12,0-.24.09-.36a14.09,14.09,0,0,0,.51-1.8,2.88,2.88,0,0,1,.66-1.89,1.27,1.27,0,0,0,.39.24c.36.15.72.21.72.72v.06a17.89,17.89,0,0,1-.48,2.16c-.06.33-.09.27-.15.57.21.09.12.33,0,.6,0,0-.06,0,.09.15l-.48.48c-.06.24-.12.48-.18.69a36.2,36.2,0,0,1-1.23,4l0,0,.21.12.12.09a.86.86,0,0,1,.09,1,21.68,21.68,0,0,1-3,3c-.5.45-.42.33-.9.78.15,0,.27,0,.45-.06A10.43,10.43,0,0,1,408,19a4.44,4.44,0,0,1,1.53.3c.36.3.18.69,0,1l-.09.21a13.31,13.31,0,0,1-4,3.09,17.84,17.84,0,0,0-1.63,1,14.06,14.06,0,0,0-2.33,1.2c.17.09.17.09.21.06l.54-.15a5.77,5.77,0,0,0,1-.21h0l1.29-.21a7.37,7.37,0,0,1,1-.21c.06,0,.22,0,.27-.06a7.77,7.77,0,0,0,1-.15c.33-.06.87-.12,1.65-.18h.15l1.11-.18c.93-.33,1-.33,1.11-.27.57-.12,1.29-.15,1.14-.15l.48,0a6.22,6.22,0,0,0,1.11-.15l.36,0,.21.06h.27a.83.83,0,0,0,.27,0l.42-.15h.42l.54.09h.12a.58.58,0,0,1,.48.18,2.1,2.1,0,0,1,.42.09Z"/><path class="cls-1" d="M421.31,3.63l-.15.69a.59.59,0,0,1-.33.18l-2.31.75-.45.18h0a13.42,13.42,0,0,0-3.39,1.62c-.5.12-.66-.24-1-.66.09-.15.09-.21-.09-.42a4,4,0,0,1,1.5-1l1-.48c.54-.18,1.59-.54,1.26-.48A3.22,3.22,0,0,0,418,3.9a1.14,1.14,0,0,1,.75-.15l.21-.12c1.17-.18,1.44-.24,1.74-.3a4.67,4.67,0,0,1,.72,0Zm-4.05,3.09c.72.6.36,1,0,1.47-.09.12-.18.21-.18.3a1.25,1.25,0,0,0-.06.18,17.83,17.83,0,0,0-.69,2.43,22.59,22.59,0,0,1,2.4-1,.6.6,0,0,0,.18-.06,2.42,2.42,0,0,1,1-.21,8.39,8.39,0,0,1,2.28-.63.51.51,0,0,0,.18-.09A1.56,1.56,0,0,1,423,9a2.49,2.49,0,0,1,.63.81,5.53,5.53,0,0,1-2.31,1,3.36,3.36,0,0,1-.78.3,1.09,1.09,0,0,1-.21.09,2.84,2.84,0,0,1-.21,1.05,2.76,2.76,0,0,0-.21.78,6.86,6.86,0,0,0-.27,1.44,5.56,5.56,0,0,1-.24,1.44,7.86,7.86,0,0,1-.27,1.41v0c0,.12-.09.42-.12.54a.76.76,0,0,0,.21-.06c.33-.06.66-.15.87-.18.9-.12,1.74-.3,2.67-.39a3,3,0,0,1,.84-.12l3.06-.48,1,.15.45.78-2.19.39a28.54,28.54,0,0,0-3.33.75l-.12-.06-.15.09a11.48,11.48,0,0,0-2.4.51c-.18.27-2.1.42-2.64.63-.12-.06-.45.18-.6.15a4,4,0,0,0-.72.36c-.63.42-1.23.84-1.56,0a1.15,1.15,0,0,1-.27-.39c0-.09-.17-.33-.17-.36a.85.85,0,0,1,.56-.54l.18-.09a11.43,11.43,0,0,1,2.37-.75l.42-.09a1,1,0,0,1,.09-.45l0-.51a1.24,1.24,0,0,1,.06-.45c.24-1.56.57-3.39.93-4.89-.3.12-.54.3-.84.39s-.72.36-1.08.54a11.26,11.26,0,0,0-1.23.57c-.33-.12-.69-.27-.78-.54h0a4.36,4.36,0,0,1,.12-2.31,4.85,4.85,0,0,1,.6-1.86.9.9,0,0,0,.21-.45,2.06,2.06,0,0,0,.27-.63C416.06,7.14,416.18,6.81,417.26,6.72Z"/></g></g></svg>