<svg xmlns="http://www.w3.org/2000/svg" viewBox="0 0 82.54 77.79"><defs><style>.cls-1{fill:#1565a5;}</style></defs><g id="레이어_2" data-name="레이어 2"><g id="레이어_1-2" data-name="레이어 1"><rect class="cls-1" x="21.63" y="72.96" width="7.32" height="4.27"/><rect class="cls-1" x="56.21" y="72.96" width="7.32" height="4.27"/><rect class="cls-1" x="76.2" y="18.59" width="4.69" height="12.61"/><rect class="cls-1" x="4.57" y="18.59" width="4.69" height="12.61"/><path d="M78.59,14.56a.08.08,0,0,1-.08-.08,4.46,4.46,0,0,0-4.44-4.28H70.38V0H12.16V10.2H8.47A4.44,4.44,0,0,0,4,14.48a.09.09,0,0,1-.09.08H0V32.49H10.48V14.56H6.55a.09.09,0,0,1-.09-.09,2,2,0,0,1,2-1.84h3.69V58.15c1.06,1.22,2.42.48,2.42-.58V47.72a.09.09,0,0,1,.13-.08,4.47,4.47,0,0,0,1.89.43H65.94a4.47,4.47,0,0,0,1.89-.43.09.09,0,0,1,.13.08V67.13c0,.07,0,.14,0,.21h0v1.82H14.6V67.34a1.49,1.49,0,0,1,0-.21V63.22A1.25,1.25,0,0,0,13.4,62a1.21,1.21,0,0,0-1.24,1.21v8.41h5.7V77.7a.09.09,0,0,0,.09.09H30a.09.09,0,0,0,.09-.09V71.58H52.45v6.21H64.68V71.58h5.7V12.63h3.69a2,2,0,0,1,2,1.93h-4V32.49H82.54V14.56ZM8.06,17V30.07H2.51A.09.09,0,0,1,2.42,30V17ZM27.67,75.36H20.29V71.58h7.38Zm34.58,0H54.87V71.58h7.38Zm5.71-61a.09.09,0,0,1-.09.09H18.46c-1.23,1.06-.49,2.42.57,2.42H68v23H60A1.25,1.25,0,0,0,58.74,41,1.21,1.21,0,0,0,60,42.26h8v3.38H14.58V42.26H54.24a1.25,1.25,0,0,0,1.27-1.18,1.21,1.21,0,0,0-1.21-1.24H42.63a.09.09,0,0,1-.05-.16l11.24-9.39,0,0-1.57-1.83h0L38.64,39.82l-.06,0H33.66a.09.09,0,0,1-.06-.16l11.24-9.39h0l-1.55-1.85h0L29.67,39.82l-.06,0h-15V10.59H68Zm0-6.21H14.58V2.42H68Zm12.16,21.9H74.48v-13a.09.09,0,0,1,.09-.09h5.55Z"/><path d="M34.37,67.31h13.8V61H34.37Zm2.42-3.88h9v1.46h-9Z"/><path d="M20.29,75.33Z"/><rect x="17.85" y="14.44" width="2.42" height="2.42"/><rect x="53.25" y="39.84" width="2.26" height="2.42"/><rect x="65.81" y="45.64" width="2.26" height="2.42"/><rect x="12.16" y="57.03" width="2.42" height="2.26"/><rect x="20.47" y="52.6" width="2.42" height="2.26"/><rect x="22.89" y="52.6" width="2.42" height="2.26"/><rect x="25.32" y="52.6" width="2.42" height="2.26"/><rect x="27.74" y="52.6" width="2.42" height="2.26"/><rect x="20.47" y="58.75" width="2.42" height="2.26"/><rect x="22.89" y="58.75" width="2.42" height="2.26"/><rect x="25.32" y="58.75" width="2.42" height="2.26"/><rect x="27.74" y="58.75" width="2.42" height="2.26"/><rect x="20.47" y="52.95" width="2.26" height="1.96"/><rect x="20.47" y="54.91" width="2.26" height="1.96"/><rect x="20.47" y="56.87" width="2.26" height="1.96"/><rect x="20.47" y="58.83" width="2.26" height="1.96"/><rect x="27.9" y="52.95" width="2.26" height="1.96"/><rect x="27.9" y="54.91" width="2.26" height="1.96"/><rect x="27.9" y="56.87" width="2.26" height="1.96"/><rect x="27.9" y="58.83" width="2.26" height="1.96"/><rect x="53.25" y="52.6" width="2.42" height="2.26"/><rect x="55.67" y="52.6" width="2.42" height="2.26"/><rect x="58.1" y="52.6" width="2.42" height="2.26"/><rect x="60.52" y="52.6" width="2.42" height="2.26"/><rect x="53.25" y="58.75" width="2.42" height="2.26"/><rect x="55.67" y="58.75" width="2.42" height="2.26"/><rect x="58.1" y="58.75" width="2.42" height="2.26"/><rect x="60.52" y="58.75" width="2.42" height="2.26"/><rect x="53.25" y="52.95" width="2.26" height="1.96"/><rect x="53.25" y="54.91" width="2.26" height="1.96"/><rect x="53.25" y="56.87" width="2.26" height="1.96"/><rect x="53.25" y="58.83" width="2.26" height="1.96"/><rect x="60.68" y="52.95" width="2.26" height="1.96"/><rect x="60.68" y="54.91" width="2.26" height="1.96"/><rect x="60.68" y="56.87" width="2.26" height="1.96"/><rect x="60.68" y="58.83" width="2.26" height="1.96"/><rect x="12.16" y="61.9" width="2.42" height="2.26"/><rect x="58.74" y="39.84" width="2.26" height="2.42"/></g></g></svg>