<svg xmlns="http://www.w3.org/2000/svg" viewBox="0 0 174.07 88.64"><defs><style>.cls-1{fill:#083b82;}</style></defs><g id="레이어_2" data-name="레이어 2"><g id="레이어_1-2" data-name="레이어 1"><path d="M70,50.45a8.31,8.31,0,0,1-3.31,2,12.85,12.85,0,0,1-3.83.56,9.38,9.38,0,0,1-3.31-.55A6.52,6.52,0,0,1,57,50.82a7.71,7.71,0,0,1-1.65-2.77,11.68,11.68,0,0,1-.59-3.9v-3a11.56,11.56,0,0,1,.59-3.86A7.52,7.52,0,0,1,57,34.47a6.8,6.8,0,0,1,2.56-1.68,9.07,9.07,0,0,1,3.28-.56,11.81,11.81,0,0,1,3.66.51,10.06,10.06,0,0,1,3,1.64l-1.43,2.27a7.49,7.49,0,0,0-2.62-1.48,9,9,0,0,0-2.61-.37,5.59,5.59,0,0,0-2.12.39A4.63,4.63,0,0,0,59,36.4a5.83,5.83,0,0,0-1.11,2.07,10.21,10.21,0,0,0-.39,3v2.32a10.21,10.21,0,0,0,.39,3A5.83,5.83,0,0,0,59,48.86a4.49,4.49,0,0,0,1.68,1.2,5.59,5.59,0,0,0,2.12.39A10.12,10.12,0,0,0,65.73,50a6.72,6.72,0,0,0,2.71-1.68Z"/><path d="M76,31.55V52.72H73.26V31.55Z"/><path d="M92.19,51.27a10.41,10.41,0,0,1-2.41,1.19,10.88,10.88,0,0,1-3.5.49,8.41,8.41,0,0,1-2.65-.41,5.74,5.74,0,0,1-2.13-1.26,5.82,5.82,0,0,1-1.42-2.2,8.74,8.74,0,0,1-.52-3.19V44.15a8.67,8.67,0,0,1,.49-3,6.05,6.05,0,0,1,1.37-2.2,5.84,5.84,0,0,1,2.09-1.33,7.68,7.68,0,0,1,2.63-.44,6.2,6.2,0,0,1,4.68,1.79A7,7,0,0,1,92.55,44v2H82.25v.11a4.45,4.45,0,0,0,1.15,3.32,4,4,0,0,0,3,1.13A8.22,8.22,0,0,0,89,50.23a8.75,8.75,0,0,0,2.06-1Zm-6-11.82a4.2,4.2,0,0,0-1.56.29,3.84,3.84,0,0,0-1.23.82,3.7,3.7,0,0,0-.81,1.26,4.23,4.23,0,0,0-.29,1.61v.39h7.67v-.51a3.9,3.9,0,0,0-1-2.81A3.65,3.65,0,0,0,86.14,39.45Z"/><path d="M100.34,53a5.58,5.58,0,0,1-3.69-1.15,3.94,3.94,0,0,1-1.35-3.17v-.75a4.15,4.15,0,0,1,1.31-3.19,6.12,6.12,0,0,1,4.26-1.24h3.89v-.89a3.11,3.11,0,0,0-.74-2.28,3.31,3.31,0,0,0-2.42-.75,6,6,0,0,0-2.34.42,13.19,13.19,0,0,0-2.06,1.12l-1.34-2a12.56,12.56,0,0,1,2.52-1.36,8.52,8.52,0,0,1,3.24-.57,8,8,0,0,1,2.36.32,5.22,5.22,0,0,1,1.83.95,4.43,4.43,0,0,1,1.2,1.54,4.72,4.72,0,0,1,.44,2.06V52.72h-2.61V50.87h0a2.76,2.76,0,0,1-.61.77,4.06,4.06,0,0,1-.82.61,5.91,5.91,0,0,1-1.33.51A6.64,6.64,0,0,1,100.34,53Zm4.42-7.2h-3.84a3.4,3.4,0,0,0-2.28.62,2.16,2.16,0,0,0-.68,1.7v.4a1.79,1.79,0,0,0,.78,1.62,3.36,3.36,0,0,0,1.88.5,6.09,6.09,0,0,0,1.75-.23,4.4,4.4,0,0,0,1.35-.72,2.4,2.4,0,0,0,.8-1,3.59,3.59,0,0,0,.24-1.42Z"/><path d="M119.88,40.07a4.45,4.45,0,0,0-.85-.27,5.37,5.37,0,0,0-1-.1,3.57,3.57,0,0,0-1.44.3,3.31,3.31,0,0,0-1.19.84,4.16,4.16,0,0,0-.81,1.3,4.22,4.22,0,0,0-.31,1.65v8.93h-2.71V37.41h2.63v2.43h0a5.19,5.19,0,0,1,1.75-2,4.82,4.82,0,0,1,2.75-.71,6.71,6.71,0,0,1,2,.3Z"/><path class="cls-1" d="M0,0V88.64H146.24l2-2H2V2H172.07V62.81l2-2V0Z"/><path class="cls-1" d="M144.39,59.39V88.64h1.85l27.83-27.83V59.39Zm2,26.27V61.39h24.27Z"/><polygon class="cls-1" points="173.1 59.4 173.1 60.81 145.27 88.64 144.39 88.64 144.39 59.4 173.1 59.4"/></g></g></svg>