<svg xmlns="http://www.w3.org/2000/svg" viewBox="0 0 174.07 88.64"><defs><style>.cls-1{fill:#083b82;}</style></defs><g id="레이어_2" data-name="레이어 2"><g id="레이어_1-2" data-name="레이어 1"><path d="M71.47,32.53v2.38h-9.8v6.27h9.21v2.38H61.67v6.78h10v2.38H58.9V32.53Z"/><path d="M79.79,52.94a5.53,5.53,0,0,1-3.69-1.15,3.92,3.92,0,0,1-1.35-3.16v-.76a4.16,4.16,0,0,1,1.31-3.19,6.12,6.12,0,0,1,4.26-1.23h3.89v-.9a3.14,3.14,0,0,0-.74-2.28,3.35,3.35,0,0,0-2.42-.74,6,6,0,0,0-2.34.42,12.82,12.82,0,0,0-2.06,1.12l-1.34-2a12.54,12.54,0,0,1,2.52-1.35,9.13,9.13,0,0,1,5.6-.26,5.32,5.32,0,0,1,1.83,1,4.43,4.43,0,0,1,1.2,1.54A4.68,4.68,0,0,1,86.9,42V52.72H84.29V50.87h0a2.76,2.76,0,0,1-.61.77,4.43,4.43,0,0,1-.82.6,5.49,5.49,0,0,1-1.33.52A7.15,7.15,0,0,1,79.79,52.94Zm4.42-7.19H80.37a3.4,3.4,0,0,0-2.28.61,2.17,2.17,0,0,0-.68,1.71v.39a1.8,1.8,0,0,0,.78,1.63,3.45,3.45,0,0,0,1.88.5,5.74,5.74,0,0,0,1.75-.24,4.37,4.37,0,0,0,1.35-.71,2.36,2.36,0,0,0,.8-1,3.51,3.51,0,0,0,.24-1.41Z"/><path d="M95.75,50.59a4.45,4.45,0,0,0,2.35-.53,1.65,1.65,0,0,0,.84-1.46v-.22a2.14,2.14,0,0,0-.14-.81,1.34,1.34,0,0,0-.53-.59,4.56,4.56,0,0,0-1.07-.46c-.45-.14-1-.29-1.76-.44a15.27,15.27,0,0,1-2.24-.61,6.1,6.1,0,0,1-1.65-.89,3.5,3.5,0,0,1-1-1.24,4.06,4.06,0,0,1-.35-1.74v-.33a3.79,3.79,0,0,1,.34-1.54,3.48,3.48,0,0,1,1-1.33,5.28,5.28,0,0,1,1.77-.93,8.49,8.49,0,0,1,2.57-.35,11.8,11.8,0,0,1,2.92.35,7.76,7.76,0,0,1,2.51,1.16l-1.21,2a6.07,6.07,0,0,0-1.8-.9,7.38,7.38,0,0,0-2.23-.33,4.47,4.47,0,0,0-2.45.51,1.58,1.58,0,0,0-.74,1.33v.26a1.43,1.43,0,0,0,.76,1.33,8.87,8.87,0,0,0,2.54.77,15.21,15.21,0,0,1,2.44.61,5.74,5.74,0,0,1,1.71.91,3.61,3.61,0,0,1,1,1.3,4.55,4.55,0,0,1,.33,1.82v.37a3.62,3.62,0,0,1-.4,1.68,4.07,4.07,0,0,1-1.17,1.36,6,6,0,0,1-1.83.91,8.28,8.28,0,0,1-2.42.33,11.56,11.56,0,0,1-3.5-.5,8.74,8.74,0,0,1-2.66-1.35L91,49a11.92,11.92,0,0,0,2.21,1.16A6.93,6.93,0,0,0,95.75,50.59Z"/><path d="M110.22,49.64l4-12.24h2.86l-8,21.65-2.47-.87,2-5.24L103.11,37.4h2.94l4.06,12.24Z"/><path class="cls-1" d="M0,0V88.64H146.24l2-2H2V2H172.07V62.81l2-2V0Z"/><path class="cls-1" d="M144.39,59.39V88.64h1.85l27.83-27.83V59.39Zm2,26.27V61.39h24.27Z"/><polygon class="cls-1" points="174.07 59.39 174.07 60.81 146.24 88.64 145.36 88.64 145.36 59.39 174.07 59.39"/></g></g></svg>