<svg xmlns="http://www.w3.org/2000/svg" viewBox="0 0 174.07 88.64"><defs><style>.cls-1{fill:#083b82;}</style></defs><g id="레이어_2" data-name="레이어 2"><g id="레이어_1-2" data-name="레이어 1"><path d="M72.34,32.53v2.38H62.62v6.75h9.13V44H62.62v8.68H59.85V32.53Z"/><path d="M84,40.07a4.23,4.23,0,0,0-.85-.27,5.34,5.34,0,0,0-1-.1,3.59,3.59,0,0,0-1.45.3,3.4,3.4,0,0,0-1.19.84,4.35,4.35,0,0,0-.81,1.3,4.41,4.41,0,0,0-.31,1.65v8.93H75.64V37.41h2.63v2.43h0a5.27,5.27,0,0,1,1.75-2,4.88,4.88,0,0,1,2.76-.71,6.7,6.7,0,0,1,2,.3Z"/><path d="M99.07,51.27a10.33,10.33,0,0,1-2.4,1.19,10.93,10.93,0,0,1-3.5.49,8.32,8.32,0,0,1-2.65-.41,5.74,5.74,0,0,1-2.13-1.26A5.83,5.83,0,0,1,87,49.08a9,9,0,0,1-.51-3.19V44.15a8.92,8.92,0,0,1,.48-3,6.07,6.07,0,0,1,1.38-2.2,5.89,5.89,0,0,1,2.08-1.33A7.74,7.74,0,0,1,93,37.13a6.18,6.18,0,0,1,4.67,1.79A7,7,0,0,1,99.44,44v2H89.13v.11a4.49,4.49,0,0,0,1.15,3.32,4.08,4.08,0,0,0,3,1.13,8.22,8.22,0,0,0,2.59-.36,8.94,8.94,0,0,0,2.06-1ZM93,39.45a4.2,4.2,0,0,0-1.56.29,3.84,3.84,0,0,0-1.23.82,3.42,3.42,0,0,0-.81,1.26,4.23,4.23,0,0,0-.3,1.61v.39h7.68v-.51a3.9,3.9,0,0,0-1-2.81A3.66,3.66,0,0,0,93,39.45Z"/><path d="M114.81,51.27a10.22,10.22,0,0,1-2.41,1.19,10.88,10.88,0,0,1-3.5.49,8.3,8.3,0,0,1-2.64-.41,5.58,5.58,0,0,1-2.13-1.26,5.83,5.83,0,0,1-1.43-2.2,8.74,8.74,0,0,1-.52-3.19V44.15a8.91,8.91,0,0,1,.49-3A6.19,6.19,0,0,1,104,38.9a5.93,5.93,0,0,1,2.09-1.33,7.68,7.68,0,0,1,2.63-.44,6.2,6.2,0,0,1,4.68,1.79A7,7,0,0,1,115.17,44v2h-10.3v.11A4.45,4.45,0,0,0,106,49.46a4,4,0,0,0,3,1.13,8.17,8.17,0,0,0,2.59-.36,8.75,8.75,0,0,0,2.06-1Zm-6-11.82a4.11,4.11,0,0,0-1.55.29,3.63,3.63,0,0,0-1.23.82,3.57,3.57,0,0,0-.82,1.26,4.43,4.43,0,0,0-.29,1.61v.39h7.67v-.51a3.86,3.86,0,0,0-1-2.81A3.65,3.65,0,0,0,108.76,39.45Z"/><path class="cls-1" d="M0,0V88.64H146.24l2-2H2V2H172.07V62.81l2-2V0Z"/><path class="cls-1" d="M144.39,59.39V88.64h1.85l27.83-27.83V59.39Zm2,26.27V61.39h24.27Z"/><polygon class="cls-1" points="173.1 59.4 173.1 60.81 145.27 88.64 144.39 88.64 144.39 59.4 173.1 59.4"/></g></g></svg>