<svg xmlns="http://www.w3.org/2000/svg" viewBox="0 0 431.11 79.2"><defs><style>.cls-1{font-size:40px;font-family:NanumSquare_acEB, NanumSquare_ac;}.cls-2{letter-spacing:-0.07em;}.cls-3{fill:#898998;}.cls-4{fill:#0b3c81;}.cls-5{fill:#fff;}</style></defs><g id="레이어_2" data-name="레이어 2"><g id="레이어_1-2" data-name="레이어 1"><text class="cls-1" transform="translate(0 55.63)">Thank <tspan class="cls-2" x="128.8" y="0">Y</tspan><tspan x="151.92" y="0">ou - </tspan></text><path class="cls-3" d="M320.58,65.63v5.43c0,4.44-5.33,7.64-9.94,3.52a2.76,2.76,0,0,1-.91-2.07V65.63Z"/><path class="cls-3" d="M397.42,65.63v5.43c0,4.44-5.33,7.64-9.94,3.52a2.76,2.76,0,0,1-.91-2.07V65.63Z"/><path class="cls-4" d="M414,65.18c0,.15,0,.3,0,.44H295V17.12h58.92A44,44,0,0,1,371,20.61a43.29,43.29,0,0,1,5.35,2.71,44.73,44.73,0,0,1,4,2.71A43.7,43.7,0,0,1,385,30l5.81,5.81,2.71,2.71,2.71,2.71,13.44,13.45a14.94,14.94,0,0,1,4.19,8.24A15.45,15.45,0,0,1,414,65.18Z"/><path class="cls-5" d="M422.29,38.51h-53c-6,0-10.43-7-5.4-13.37a5,5,0,0,1,3.89-1.82H407.1Z"/><path class="cls-5" d="M337.26,38.51H295V23.32h43.82a5,5,0,0,1,3.89,1.82C347.69,31.46,343.3,38.51,337.26,38.51Z"/><path d="M422.29,38.51,407.1,23.32H376.39A43.29,43.29,0,0,0,371,20.61h-3.31a7.61,7.61,0,0,0-6.14,3c-6.22,8.4-.31,17.61,7.71,17.61h26.89l-2.71-2.71Zm-53-2.71c-4,0-6.93-4.9-3.06-9.06a2.28,2.28,0,0,1,1.65-.71H406l9.76,9.77Zm44.52,27.11H295v2.71h14.78v6.88a2.76,2.76,0,0,0,.91,2.07c4.61,4.12,9.94.92,9.94-3.52V65.63h66v6.88a2.76,2.76,0,0,0,.91,2.07c4.61,4.12,9.94.92,9.94-3.52V65.63H414c0-.14,0-.29,0-.44A15.45,15.45,0,0,0,413.82,62.91Zm-95.95,8.15c0,2.37-3.05,4-5.42,1.29v-4h5.42Zm76.84,0c0,2.37-3,4-5.42,1.29v-4h5.42Z"/><path d="M400.14,71.06a8.12,8.12,0,0,1-.47,2.71h28.27V79.2H362.66V73.77h21.67a8.12,8.12,0,0,1-.47-2.71V68.35H323.3v2.71a8.12,8.12,0,0,1-.47,2.71H340V79.2H295V73.77h12.54a8.12,8.12,0,0,1-.47-2.71V68.35H295V65.63h14.78v6.88a2.76,2.76,0,0,0,.91,2.07c4.61,4.12,9.94.92,9.94-3.52V65.63h66v6.88a2.76,2.76,0,0,0,.91,2.07c4.61,4.12,9.94.92,9.94-3.52V65.63H414c0-.14,0-.29,0-.44a15.45,15.45,0,0,0-.17-2.27,12.23,12.23,0,0,0,10.72-17.46,9.4,9.4,0,0,0-2-2.89l-1.34-1.34h-25l-2.71-2.71h28.81L407.1,23.32H376.39A43.29,43.29,0,0,0,371,20.61h29.52l-3.11-3.11A41,41,0,0,0,368.28,5.42H295V0h74.53a43.79,43.79,0,0,1,31,12.82L426,38.34c5.73,5.73,7,14.72,2.13,22.78-2.42,4-8.29,7.23-13,7.23h-15Z"/><path d="M351.23,73.77a2.73,2.73,0,1,0,1.92.8A2.7,2.7,0,0,0,351.23,73.77Z"/><path d="M345,38.23a7.61,7.61,0,0,1-6.13,3H295V35.8h42.31c4,0,6.93-4.9,3.06-9.06a2.28,2.28,0,0,0-1.65-.71H305.08V20.61h32.18C345.28,20.61,351.2,29.83,345,38.23Z"/><rect x="348.52" y="73.77" width="5.42" height="5.43"/></g></g></svg>