<svg xmlns="http://www.w3.org/2000/svg" viewBox="0 0 20 20"><defs><style>.cls-1{fill:#6d7373;}</style></defs><g id="레이어_2" data-name="레이어 2"><g id="레이어_1-2" data-name="레이어 1"><path class="cls-1" d="M18,7V18H2V7H18m2-2H0V20H20V5Z"/><rect class="cls-1" width="20" height="5.72"/><rect class="cls-1" x="2.86" y="7.8" width="2.49" height="2.49" transform="translate(8.21 18.08) rotate(180)"/><rect class="cls-1" x="6.79" y="7.8" width="2.49" height="2.49" transform="translate(16.07 18.08) rotate(180)"/><rect class="cls-1" x="10.72" y="7.8" width="2.49" height="2.49" transform="translate(23.93 18.08) rotate(180)"/><rect class="cls-1" x="14.65" y="7.8" width="2.49" height="2.49" transform="translate(31.79 18.08) rotate(180)"/><rect class="cls-1" x="2.86" y="11.26" width="2.49" height="2.49" transform="translate(8.21 25) rotate(180)"/><rect class="cls-1" x="6.79" y="11.26" width="2.49" height="2.49" transform="translate(16.07 25) rotate(180)"/><rect class="cls-1" x="10.72" y="11.26" width="2.49" height="2.49" transform="translate(23.93 25) rotate(180)"/><rect class="cls-1" x="14.65" y="11.26" width="2.49" height="2.49" transform="translate(31.79 25) rotate(180)"/><rect class="cls-1" x="2.86" y="14.72" width="2.49" height="2.49" transform="translate(8.21 31.92) rotate(180)"/><rect class="cls-1" x="6.79" y="14.72" width="2.49" height="2.49" transform="translate(16.07 31.92) rotate(180)"/><rect class="cls-1" x="10.72" y="14.72" width="2.49" height="2.49" transform="translate(23.93 31.92) rotate(180)"/><rect class="cls-1" x="14.65" y="14.72" width="2.49" height="2.49" transform="translate(31.79 31.92) rotate(180)"/></g></g></svg>